<mxfile host="65bd71144e">
    <diagram id="ytnDT0i3VeUVpUmqApCF" name="EntityRelation">
        <mxGraphModel dx="1576" dy="782" grid="1" gridSize="10" guides="1" tooltips="1" connect="1" arrows="1" fold="1" page="1" pageScale="1" pageWidth="850" pageHeight="1100" math="0" shadow="0">
            <root>
                <mxCell id="0"/>
                <mxCell id="1" parent="0"/>
                <mxCell id="5" value="&lt;p style=&quot;margin: 0px ; margin-top: 4px ; text-align: center ; text-decoration: underline&quot;&gt;&lt;b&gt;Tool:Object&lt;/b&gt;&lt;/p&gt;&lt;hr&gt;&lt;p style=&quot;margin: 0px ; margin-left: 8px&quot;&gt;_id = OUID, auto&lt;br&gt;&quot;serialNumber&quot; = String, 24&lt;br&gt;&quot;partNumber&quot; = String, 24&lt;/p&gt;&lt;p style=&quot;margin: 0px ; margin-left: 8px&quot;&gt;&quot;barcode&quot; = Number, 10&lt;/p&gt;&lt;p style=&quot;margin: 0px ; margin-left: 8px&quot;&gt;&quot;status&quot; = String, 24&lt;/p&gt;&lt;p style=&quot;margin: 0px ; margin-left: 8px&quot;&gt;&quot;serviceAssignment&quot; = String, 24&lt;/p&gt;&lt;p style=&quot;margin: 0px ; margin-left: 8px&quot;&gt;&quot;statusLastChanged&quot; = Date }&lt;br&gt;&lt;/p&gt;&lt;p style=&quot;margin: 0px ; margin-left: 8px&quot;&gt;&quot;description&quot; = String, 255&lt;/p&gt;&lt;p style=&quot;margin: 0px ; margin-left: 8px&quot;&gt;&quot;manufacturer&quot; = String, 32&lt;/p&gt;&lt;p style=&quot;margin: 0px ; margin-left: 8px&quot;&gt;&quot;createdOn&quot; = Date&lt;/p&gt;&lt;p style=&quot;margin: 0px ; margin-left: 8px&quot;&gt;&quot;createdBy&quot; = {User}&lt;/p&gt;&lt;p style=&quot;margin: 0px ; margin-left: 8px&quot;&gt;&quot;updatedOn&quot; = Date&lt;br&gt;&lt;/p&gt;&lt;p style=&quot;margin: 0px ; margin-left: 8px&quot;&gt;&quot;updatedBy&quot; = {User}&lt;/p&gt;&lt;p style=&quot;margin: 0px ; margin-left: 8px&quot;&gt;&quot;image&quot; = String (SVG Encoded Text)&lt;/p&gt;&lt;p style=&quot;margin: 0px ; margin-left: 8px&quot;&gt;&quot;archived&quot; = Boolean, *False*&lt;/p&gt;" style="verticalAlign=top;align=left;overflow=fill;fontSize=12;fontFamily=Helvetica;html=1;" vertex="1" parent="1">
                    <mxGeometry x="90" y="20" width="270" height="250" as="geometry"/>
                </mxCell>
                <mxCell id="8" value="&lt;p style=&quot;margin: 0px ; margin-top: 4px ; text-align: center ; text-decoration: underline&quot;&gt;&lt;b&gt;User:Object&lt;/b&gt;&lt;/p&gt;&lt;hr&gt;&lt;p style=&quot;margin: 0px ; margin-left: 8px&quot;&gt;&quot;_id&quot; = UUID, auto&lt;br&gt;&quot;email&quot; = String, 36&lt;/p&gt;&lt;p style=&quot;margin: 0px ; margin-left: 8px&quot;&gt;&quot;password&quot; = String, 64&lt;br&gt;&quot;firstName&quot; = String, 18&lt;/p&gt;&lt;p style=&quot;margin: 0px ; margin-left: 8px&quot;&gt;&quot;lastName&quot; = String, 30&lt;/p&gt;&lt;p style=&quot;margin: 0px ; margin-left: 8px&quot;&gt;&quot;displayName&quot; = v(first + &quot; &quot; last)&lt;/p&gt;&lt;p style=&quot;margin: 0px ; margin-left: 8px&quot;&gt;&quot;createdOn&quot; = Date&lt;/p&gt;&lt;p style=&quot;margin: 0px ; margin-left: 8px&quot;&gt;&quot;updatedOn&quot; = Date&lt;br&gt;&lt;/p&gt;&lt;p style=&quot;margin: 0px ; margin-left: 8px&quot;&gt;&quot;lastLogin&quot; = Date&lt;/p&gt;" style="verticalAlign=top;align=left;overflow=fill;fontSize=12;fontFamily=Helvetica;html=1;" vertex="1" parent="1">
                    <mxGeometry x="425" y="320" width="190" height="200" as="geometry"/>
                </mxCell>
                <mxCell id="9" value="" style="edgeStyle=entityRelationEdgeStyle;fontSize=12;html=1;endArrow=ERoneToMany;startArrow=ERmandOne;exitX=-0.018;exitY=0.092;exitDx=0;exitDy=0;exitPerimeter=0;entryX=1.003;entryY=0.849;entryDx=0;entryDy=0;entryPerimeter=0;" edge="1" parent="1" source="8" target="5">
                    <mxGeometry width="100" height="100" relative="1" as="geometry">
                        <mxPoint x="140" y="440" as="sourcePoint"/>
                        <mxPoint x="240" y="340" as="targetPoint"/>
                    </mxGeometry>
                </mxCell>
            </root>
        </mxGraphModel>
    </diagram>
    <diagram id="lKCODA6wVHFzISZ-hTEW" name="AbstractComponents">
        <mxGraphModel dx="1572" dy="920" grid="1" gridSize="10" guides="1" tooltips="1" connect="1" arrows="1" fold="1" page="1" pageScale="1" pageWidth="850" pageHeight="1100" math="0" shadow="0">
            <root>
                <mxCell id="SR-n9dK1odmoLLhyO4WW-0"/>
                <mxCell id="SR-n9dK1odmoLLhyO4WW-1" parent="SR-n9dK1odmoLLhyO4WW-0"/>
                <mxCell id="G6t-C7Q8ggfQeTyFk7uE-20" value="" style="shape=ext;double=1;rounded=1;whiteSpace=wrap;html=1;" vertex="1" parent="SR-n9dK1odmoLLhyO4WW-1">
                    <mxGeometry x="40" y="310" width="740" height="555" as="geometry"/>
                </mxCell>
                <mxCell id="SR-n9dK1odmoLLhyO4WW-12" value="Abstract Components To Be Designed&#10;" style="swimlane;fontStyle=0;childLayout=stackLayout;horizontal=1;startSize=26;fillColor=none;horizontalStack=0;resizeParent=1;resizeParentMax=0;resizeLast=0;collapsible=1;marginBottom=0;" vertex="1" parent="SR-n9dK1odmoLLhyO4WW-1">
                    <mxGeometry x="20" y="30" width="270" height="266" as="geometry"/>
                </mxCell>
                <mxCell id="SR-n9dK1odmoLLhyO4WW-13" value="Login/Signup Pages" style="text;strokeColor=#666666;fillColor=#f5f5f5;align=left;verticalAlign=top;spacingLeft=4;spacingRight=4;overflow=hidden;rotatable=0;points=[[0,0.5],[1,0.5]];portConstraint=eastwest;fontColor=#333333;" vertex="1" parent="SR-n9dK1odmoLLhyO4WW-12">
                    <mxGeometry y="26" width="270" height="26" as="geometry"/>
                </mxCell>
                <mxCell id="SR-n9dK1odmoLLhyO4WW-14" value="Dashboard/Landing Page&#10;    - View Tools By Job&#10;    - Search Tool by SerialNumber, Barcode" style="text;strokeColor=none;fillColor=none;align=left;verticalAlign=top;spacingLeft=4;spacingRight=4;overflow=hidden;rotatable=0;points=[[0,0.5],[1,0.5]];portConstraint=eastwest;" vertex="1" parent="SR-n9dK1odmoLLhyO4WW-12">
                    <mxGeometry y="52" width="270" height="58" as="geometry"/>
                </mxCell>
                <mxCell id="SR-n9dK1odmoLLhyO4WW-15" value="Page/Form/Modal to Insert New Tools" style="text;strokeColor=#666666;fillColor=#f5f5f5;align=left;verticalAlign=top;spacingLeft=4;spacingRight=4;overflow=hidden;rotatable=0;points=[[0,0.5],[1,0.5]];portConstraint=eastwest;fontColor=#333333;" vertex="1" parent="SR-n9dK1odmoLLhyO4WW-12">
                    <mxGeometry y="110" width="270" height="26" as="geometry"/>
                </mxCell>
                <mxCell id="SR-n9dK1odmoLLhyO4WW-16" value="Page/Form/Modal to Check Outbound Tools out" style="text;strokeColor=#666666;fillColor=#f5f5f5;align=left;verticalAlign=top;spacingLeft=4;spacingRight=4;overflow=hidden;rotatable=0;points=[[0,0.5],[1,0.5]];portConstraint=eastwest;fontColor=#333333;" vertex="1" parent="SR-n9dK1odmoLLhyO4WW-12">
                    <mxGeometry y="136" width="270" height="26" as="geometry"/>
                </mxCell>
                <mxCell id="SR-n9dK1odmoLLhyO4WW-21" value="Page/Form/Modal to Check inbound tools in" style="text;strokeColor=#666666;fillColor=#f5f5f5;align=left;verticalAlign=top;spacingLeft=4;spacingRight=4;overflow=hidden;rotatable=0;points=[[0,0.5],[1,0.5]];portConstraint=eastwest;fontColor=#333333;" vertex="1" parent="SR-n9dK1odmoLLhyO4WW-12">
                    <mxGeometry y="162" width="270" height="26" as="geometry"/>
                </mxCell>
                <mxCell id="SR-n9dK1odmoLLhyO4WW-20" value="Page/Form/Modal to directly edit tool properties" style="text;strokeColor=#666666;fillColor=#f5f5f5;align=left;verticalAlign=top;spacingLeft=4;spacingRight=4;overflow=hidden;rotatable=0;points=[[0,0.5],[1,0.5]];portConstraint=eastwest;fontColor=#333333;" vertex="1" parent="SR-n9dK1odmoLLhyO4WW-12">
                    <mxGeometry y="188" width="270" height="26" as="geometry"/>
                </mxCell>
                <mxCell id="SR-n9dK1odmoLLhyO4WW-19" value="Admin Settings Page(s)" style="text;strokeColor=#666666;fillColor=#f5f5f5;align=left;verticalAlign=top;spacingLeft=4;spacingRight=4;overflow=hidden;rotatable=0;points=[[0,0.5],[1,0.5]];portConstraint=eastwest;fontColor=#333333;" vertex="1" parent="SR-n9dK1odmoLLhyO4WW-12">
                    <mxGeometry y="214" width="270" height="26" as="geometry"/>
                </mxCell>
                <mxCell id="SR-n9dK1odmoLLhyO4WW-18" style="text;strokeColor=#666666;fillColor=#f5f5f5;align=left;verticalAlign=top;spacingLeft=4;spacingRight=4;overflow=hidden;rotatable=0;points=[[0,0.5],[1,0.5]];portConstraint=eastwest;fontColor=#333333;" vertex="1" parent="SR-n9dK1odmoLLhyO4WW-12">
                    <mxGeometry y="240" width="270" height="26" as="geometry"/>
                </mxCell>
                <mxCell id="G6t-C7Q8ggfQeTyFk7uE-15" style="edgeStyle=orthogonalEdgeStyle;html=1;entryX=0.5;entryY=0;entryDx=0;entryDy=0;entryPerimeter=0;" edge="1" parent="SR-n9dK1odmoLLhyO4WW-1" source="G6t-C7Q8ggfQeTyFk7uE-2" target="G6t-C7Q8ggfQeTyFk7uE-11">
                    <mxGeometry relative="1" as="geometry">
                        <Array as="points">
                            <mxPoint x="500" y="490"/>
                            <mxPoint x="350" y="490"/>
                        </Array>
                    </mxGeometry>
                </mxCell>
                <mxCell id="G6t-C7Q8ggfQeTyFk7uE-2" value="Sign Up" style="html=1;strokeColor=none;fillColor=#0079D6;labelPosition=center;verticalLabelPosition=middle;verticalAlign=top;align=center;fontSize=12;outlineConnect=0;spacingTop=-6;fontColor=#FFFFFF;sketch=0;shape=mxgraph.sitemap.form;fontFamily=Helvetica;" vertex="1" parent="SR-n9dK1odmoLLhyO4WW-1">
                    <mxGeometry x="440" y="410" width="120" height="70" as="geometry"/>
                </mxCell>
                <mxCell id="G6t-C7Q8ggfQeTyFk7uE-7" style="edgeStyle=orthogonalEdgeStyle;html=1;entryX=0;entryY=0.5;entryDx=0;entryDy=0;entryPerimeter=0;" edge="1" parent="SR-n9dK1odmoLLhyO4WW-1">
                    <mxGeometry relative="1" as="geometry">
                        <mxPoint x="260" y="445" as="sourcePoint"/>
                        <mxPoint x="290" y="445" as="targetPoint"/>
                    </mxGeometry>
                </mxCell>
                <mxCell id="G6t-C7Q8ggfQeTyFk7uE-14" value="" style="edgeStyle=orthogonalEdgeStyle;html=1;" edge="1" parent="SR-n9dK1odmoLLhyO4WW-1" source="G6t-C7Q8ggfQeTyFk7uE-9" target="G6t-C7Q8ggfQeTyFk7uE-11">
                    <mxGeometry relative="1" as="geometry"/>
                </mxCell>
                <mxCell id="G6t-C7Q8ggfQeTyFk7uE-25" value="" style="edgeStyle=orthogonalEdgeStyle;html=1;" edge="1" parent="SR-n9dK1odmoLLhyO4WW-1" source="G6t-C7Q8ggfQeTyFk7uE-9" target="G6t-C7Q8ggfQeTyFk7uE-2">
                    <mxGeometry relative="1" as="geometry"/>
                </mxCell>
                <mxCell id="G6t-C7Q8ggfQeTyFk7uE-9" value="Login" style="html=1;strokeColor=none;fillColor=#0079D6;labelPosition=center;verticalLabelPosition=middle;verticalAlign=top;align=center;fontSize=12;outlineConnect=0;spacingTop=-6;fontColor=#FFFFFF;sketch=0;shape=mxgraph.sitemap.login;" vertex="1" parent="SR-n9dK1odmoLLhyO4WW-1">
                    <mxGeometry x="290" y="410" width="120" height="70" as="geometry"/>
                </mxCell>
                <mxCell id="G6t-C7Q8ggfQeTyFk7uE-10" value="Root Domain" style="html=1;strokeColor=none;fillColor=#0079D6;labelPosition=center;verticalLabelPosition=middle;verticalAlign=top;align=center;fontSize=12;outlineConnect=0;spacingTop=-6;fontColor=#FFFFFF;sketch=0;shape=mxgraph.sitemap.home;" vertex="1" parent="SR-n9dK1odmoLLhyO4WW-1">
                    <mxGeometry x="140" y="410" width="120" height="70" as="geometry"/>
                </mxCell>
                <mxCell id="G6t-C7Q8ggfQeTyFk7uE-26" value="" style="edgeStyle=orthogonalEdgeStyle;html=1;" edge="1" parent="SR-n9dK1odmoLLhyO4WW-1" source="G6t-C7Q8ggfQeTyFk7uE-11" target="G6t-C7Q8ggfQeTyFk7uE-24">
                    <mxGeometry relative="1" as="geometry"/>
                </mxCell>
                <mxCell id="G6t-C7Q8ggfQeTyFk7uE-33" style="edgeStyle=orthogonalEdgeStyle;html=1;entryX=1;entryY=0.5;entryDx=0;entryDy=0;entryPerimeter=0;" edge="1" parent="SR-n9dK1odmoLLhyO4WW-1" source="G6t-C7Q8ggfQeTyFk7uE-11" target="G6t-C7Q8ggfQeTyFk7uE-29">
                    <mxGeometry relative="1" as="geometry"/>
                </mxCell>
                <mxCell id="G6t-C7Q8ggfQeTyFk7uE-11" value="ToolDashboard" style="html=1;strokeColor=none;fillColor=#0079D6;labelPosition=center;verticalLabelPosition=middle;verticalAlign=top;align=center;fontSize=12;outlineConnect=0;spacingTop=-6;fontColor=#FFFFFF;sketch=0;shape=mxgraph.sitemap.home;" vertex="1" parent="SR-n9dK1odmoLLhyO4WW-1">
                    <mxGeometry x="290" y="550" width="120" height="70" as="geometry"/>
                </mxCell>
                <mxCell id="G6t-C7Q8ggfQeTyFk7uE-18" value="New Tool Input" style="html=1;strokeColor=#b85450;fillColor=#f8cecc;labelPosition=center;verticalLabelPosition=middle;verticalAlign=top;align=center;fontSize=12;outlineConnect=0;spacingTop=-6;sketch=0;shape=mxgraph.sitemap.form;" vertex="1" parent="SR-n9dK1odmoLLhyO4WW-1">
                    <mxGeometry x="290" y="600" width="120" height="70" as="geometry"/>
                </mxCell>
                <mxCell id="G6t-C7Q8ggfQeTyFk7uE-19" value="Blue = Page&lt;br&gt;Red = Modal" style="text;html=1;align=center;verticalAlign=middle;resizable=0;points=[];autosize=1;strokeColor=#666666;fillColor=#f5f5f5;fontColor=#333333;" vertex="1" parent="SR-n9dK1odmoLLhyO4WW-1">
                    <mxGeometry x="150" y="350" width="80" height="30" as="geometry"/>
                </mxCell>
                <mxCell id="G6t-C7Q8ggfQeTyFk7uE-22" value="Check Tool Out" style="html=1;strokeColor=#b85450;fillColor=#f8cecc;labelPosition=center;verticalLabelPosition=middle;verticalAlign=top;align=center;fontSize=12;outlineConnect=0;spacingTop=-6;sketch=0;shape=mxgraph.sitemap.form;" vertex="1" parent="SR-n9dK1odmoLLhyO4WW-1">
                    <mxGeometry x="290" y="620" width="120" height="70" as="geometry"/>
                </mxCell>
                <mxCell id="G6t-C7Q8ggfQeTyFk7uE-23" value="Check Tool In" style="html=1;strokeColor=#b85450;fillColor=#f8cecc;labelPosition=center;verticalLabelPosition=middle;verticalAlign=top;align=center;fontSize=12;outlineConnect=0;spacingTop=-6;sketch=0;shape=mxgraph.sitemap.form;" vertex="1" parent="SR-n9dK1odmoLLhyO4WW-1">
                    <mxGeometry x="290" y="640" width="120" height="70" as="geometry"/>
                </mxCell>
                <mxCell id="G6t-C7Q8ggfQeTyFk7uE-24" value="UserManagement" style="html=1;strokeColor=none;fillColor=#0079D6;labelPosition=center;verticalLabelPosition=middle;verticalAlign=top;align=center;fontSize=12;outlineConnect=0;spacingTop=-6;fontColor=#FFFFFF;sketch=0;shape=mxgraph.sitemap.settings;fontFamily=Helvetica;" vertex="1" parent="SR-n9dK1odmoLLhyO4WW-1">
                    <mxGeometry x="460" y="550" width="140" height="70" as="geometry"/>
                </mxCell>
                <mxCell id="G6t-C7Q8ggfQeTyFk7uE-21" value="Change CurrUser Pass" style="html=1;strokeColor=#b85450;fillColor=#f8cecc;labelPosition=center;verticalLabelPosition=middle;verticalAlign=top;align=center;fontSize=12;outlineConnect=0;spacingTop=-6;sketch=0;shape=mxgraph.sitemap.profile;" vertex="1" parent="SR-n9dK1odmoLLhyO4WW-1">
                    <mxGeometry x="460" y="590" width="140" height="70" as="geometry"/>
                </mxCell>
                <mxCell id="G6t-C7Q8ggfQeTyFk7uE-27" value="Reset RegUser Pass" style="html=1;strokeColor=#b85450;fillColor=#f8cecc;labelPosition=center;verticalLabelPosition=middle;verticalAlign=top;align=center;fontSize=12;outlineConnect=0;spacingTop=-6;sketch=0;shape=mxgraph.sitemap.profile;" vertex="1" parent="SR-n9dK1odmoLLhyO4WW-1">
                    <mxGeometry x="460" y="610" width="140" height="70" as="geometry"/>
                </mxCell>
                <mxCell id="G6t-C7Q8ggfQeTyFk7uE-28" value="Create New User" style="html=1;strokeColor=#b85450;fillColor=#f8cecc;labelPosition=center;verticalLabelPosition=middle;verticalAlign=top;align=center;fontSize=12;outlineConnect=0;spacingTop=-6;sketch=0;shape=mxgraph.sitemap.profile;" vertex="1" parent="SR-n9dK1odmoLLhyO4WW-1">
                    <mxGeometry x="460" y="630" width="140" height="70" as="geometry"/>
                </mxCell>
                <mxCell id="G6t-C7Q8ggfQeTyFk7uE-29" value="SearchDashboard" style="html=1;strokeColor=none;fillColor=#0079D6;labelPosition=center;verticalLabelPosition=middle;verticalAlign=top;align=center;fontSize=12;outlineConnect=0;spacingTop=-6;fontColor=#FFFFFF;sketch=0;shape=mxgraph.sitemap.search;" vertex="1" parent="SR-n9dK1odmoLLhyO4WW-1">
                    <mxGeometry x="110" y="550" width="120" height="70" as="geometry"/>
                </mxCell>
                <mxCell id="G6t-C7Q8ggfQeTyFk7uE-30" value="Search" style="html=1;strokeColor=none;fillColor=#0079D6;labelPosition=center;verticalLabelPosition=middle;verticalAlign=top;align=center;fontSize=12;outlineConnect=0;spacingTop=-6;fontColor=#FFFFFF;sketch=0;shape=mxgraph.sitemap.search;" vertex="1" parent="SR-n9dK1odmoLLhyO4WW-1">
                    <mxGeometry x="660" y="460" width="120" height="70" as="geometry"/>
                </mxCell>
                <mxCell id="G6t-C7Q8ggfQeTyFk7uE-31" value="Search" style="html=1;strokeColor=none;fillColor=#0079D6;labelPosition=center;verticalLabelPosition=middle;verticalAlign=top;align=center;fontSize=12;outlineConnect=0;spacingTop=-6;fontColor=#FFFFFF;sketch=0;shape=mxgraph.sitemap.search;" vertex="1" parent="SR-n9dK1odmoLLhyO4WW-1">
                    <mxGeometry x="660" y="460" width="120" height="70" as="geometry"/>
                </mxCell>
                <mxCell id="G6t-C7Q8ggfQeTyFk7uE-32" value="SearchBySerial" style="html=1;strokeColor=#b85450;fillColor=#f8cecc;labelPosition=center;verticalLabelPosition=middle;verticalAlign=top;align=center;fontSize=12;outlineConnect=0;spacingTop=-6;sketch=0;shape=mxgraph.sitemap.search;" vertex="1" parent="SR-n9dK1odmoLLhyO4WW-1">
                    <mxGeometry x="20" y="570" width="170" height="70" as="geometry"/>
                </mxCell>
                <mxCell id="G6t-C7Q8ggfQeTyFk7uE-34" value="SearchByBarcode" style="html=1;strokeColor=#b85450;fillColor=#f8cecc;labelPosition=center;verticalLabelPosition=middle;verticalAlign=top;align=center;fontSize=12;outlineConnect=0;spacingTop=-6;sketch=0;shape=mxgraph.sitemap.search;" vertex="1" parent="SR-n9dK1odmoLLhyO4WW-1">
                    <mxGeometry x="20" y="590" width="170" height="70" as="geometry"/>
                </mxCell>
                <mxCell id="G6t-C7Q8ggfQeTyFk7uE-38" style="edgeStyle=orthogonalEdgeStyle;html=1;entryX=0;entryY=0.5;entryDx=0;entryDy=0;entryPerimeter=0;" edge="1" parent="SR-n9dK1odmoLLhyO4WW-1" source="G6t-C7Q8ggfQeTyFk7uE-36" target="G6t-C7Q8ggfQeTyFk7uE-37">
                    <mxGeometry relative="1" as="geometry"/>
                </mxCell>
                <mxCell id="G6t-C7Q8ggfQeTyFk7uE-36" value="SearchByServiceAssignment" style="html=1;strokeColor=#b85450;fillColor=#f8cecc;labelPosition=center;verticalLabelPosition=middle;verticalAlign=top;align=center;fontSize=12;outlineConnect=0;spacingTop=-6;sketch=0;shape=mxgraph.sitemap.search;" vertex="1" parent="SR-n9dK1odmoLLhyO4WW-1">
                    <mxGeometry x="20" y="610" width="170" height="70" as="geometry"/>
                </mxCell>
                <mxCell id="G6t-C7Q8ggfQeTyFk7uE-37" value="Result" style="html=1;strokeColor=none;fillColor=#0079D6;labelPosition=center;verticalLabelPosition=middle;verticalAlign=top;align=center;fontSize=12;outlineConnect=0;spacingTop=-6;fontColor=#FFFFFF;sketch=0;shape=mxgraph.sitemap.post;" vertex="1" parent="SR-n9dK1odmoLLhyO4WW-1">
                    <mxGeometry x="120" y="740" width="120" height="70" as="geometry"/>
                </mxCell>
            </root>
        </mxGraphModel>
    </diagram>
    <diagram id="QkdDX7jFY7XSgdMK3mh3" name="Dashboard Mockup">
        <mxGraphModel dx="2227" dy="1303" grid="1" gridSize="10" guides="1" tooltips="1" connect="1" arrows="1" fold="1" page="1" pageScale="1" pageWidth="850" pageHeight="1100" math="0" shadow="0">
            <root>
                <mxCell id="jPBKZrZKllmKcdpN2WOx-0"/>
                <mxCell id="jPBKZrZKllmKcdpN2WOx-1" parent="jPBKZrZKllmKcdpN2WOx-0"/>
                <mxCell id="QPSkaK19_1HOVtRi-PG8-1" value="" style="group" vertex="1" connectable="0" parent="jPBKZrZKllmKcdpN2WOx-1">
                    <mxGeometry x="40" y="100" width="1130" height="760" as="geometry"/>
                </mxCell>
                <mxCell id="QPSkaK19_1HOVtRi-PG8-0" value="" style="shape=ext;double=1;rounded=1;whiteSpace=wrap;html=1;fontSize=25;fontColor=#000000;strokeColor=#999999;strokeWidth=2;fillColor=default;opacity=95;" vertex="1" parent="QPSkaK19_1HOVtRi-PG8-1">
                    <mxGeometry width="1130" height="760" as="geometry"/>
                </mxCell>
                <mxCell id="jPBKZrZKllmKcdpN2WOx-5" value="ToolKeeper" style="html=1;shadow=0;dashed=0;fillColor=#343A40;strokeColor=none;fontSize=16;fontColor=#ffffff;align=left;spacing=15;" vertex="1" parent="QPSkaK19_1HOVtRi-PG8-1">
                    <mxGeometry x="60" y="70" width="970" height="60" as="geometry"/>
                </mxCell>
                <mxCell id="jPBKZrZKllmKcdpN2WOx-6" value="Dashboard" style="fillColor=none;strokeColor=none;fontSize=14;fontColor=#ffffff;align=center;" vertex="1" parent="jPBKZrZKllmKcdpN2WOx-5">
                    <mxGeometry width="70" height="40" relative="1" as="geometry">
                        <mxPoint x="140" y="10" as="offset"/>
                    </mxGeometry>
                </mxCell>
                <mxCell id="jPBKZrZKllmKcdpN2WOx-7" value="Check-Out" style="fillColor=none;strokeColor=none;fontSize=14;fontColor=#ffffff;align=center;" vertex="1" parent="jPBKZrZKllmKcdpN2WOx-5">
                    <mxGeometry width="70" height="40" relative="1" as="geometry">
                        <mxPoint x="240" y="10" as="offset"/>
                    </mxGeometry>
                </mxCell>
                <mxCell id="jPBKZrZKllmKcdpN2WOx-8" value="Check-In" style="fillColor=none;strokeColor=none;fontSize=14;fontColor=#ffffff;align=center;spacingRight=0;" vertex="1" parent="jPBKZrZKllmKcdpN2WOx-5">
                    <mxGeometry width="80" height="40" relative="1" as="geometry">
                        <mxPoint x="320" y="10" as="offset"/>
                    </mxGeometry>
                </mxCell>
                <mxCell id="jPBKZrZKllmKcdpN2WOx-10" value="displayName" style="html=1;shadow=0;dashed=0;shape=mxgraph.bootstrap.rrect;rSize=5;fontSize=14;fontColor=#1CA5B8;strokeColor=#1CA5B8;fillColor=none;align=center;" vertex="1" parent="jPBKZrZKllmKcdpN2WOx-5">
                    <mxGeometry x="1" width="131" height="40" relative="1" as="geometry">
                        <mxPoint x="-141" y="10" as="offset"/>
                    </mxGeometry>
                </mxCell>
                <mxCell id="jPBKZrZKllmKcdpN2WOx-22" value="" style="shape=triangle;direction=south;fillColor=#ffffff;strokeColor=none;perimeter=none;" vertex="1" parent="jPBKZrZKllmKcdpN2WOx-5">
                    <mxGeometry x="1" y="0.5" width="10" height="5" relative="1" as="geometry">
                        <mxPoint x="-30" y="-2" as="offset"/>
                    </mxGeometry>
                </mxCell>
                <mxCell id="jPBKZrZKllmKcdpN2WOx-29" value="Search By" style="html=1;shadow=0;dashed=0;shape=mxgraph.bootstrap.rrect;rSize=5;strokeColor=none;strokeWidth=1;fillColor=#6C767D;fontColor=#ffffff;whiteSpace=wrap;align=left;verticalAlign=middle;fontStyle=0;fontSize=14;spacingLeft=10;opacity=25;" vertex="1" parent="jPBKZrZKllmKcdpN2WOx-5">
                    <mxGeometry x="415" y="10" width="140" height="40" as="geometry"/>
                </mxCell>
                <mxCell id="jPBKZrZKllmKcdpN2WOx-30" value="" style="shape=triangle;direction=south;fillColor=#ffffff;strokeColor=none;perimeter=none;" vertex="1" parent="jPBKZrZKllmKcdpN2WOx-29">
                    <mxGeometry x="1" y="0.5" width="10" height="5" relative="1" as="geometry">
                        <mxPoint x="-17" y="-2.5" as="offset"/>
                    </mxGeometry>
                </mxCell>
                <mxCell id="7TPz35_8MEV45HYVAW2m-4" value="&lt;span style=&quot;font-size: 20px&quot;&gt;&lt;b&gt;All Equipment and Tools&lt;/b&gt;&lt;/span&gt;&lt;br&gt;&lt;br&gt;Filters out archived tools only..&lt;br&gt;Default: Sorts by Serial Number Ascending" style="html=1;shadow=0;dashed=0;shape=mxgraph.bootstrap.rrect;rSize=5;strokeColor=#DFDFDF;html=1;whiteSpace=wrap;fillColor=#ffffff;fontColor=#000000;verticalAlign=top;align=left;spacing=20;spacingBottom=0;fontSize=14;spacingTop=160;opacity=25;" vertex="1" parent="QPSkaK19_1HOVtRi-PG8-1">
                    <mxGeometry x="460" y="440" width="370" height="290" as="geometry"/>
                </mxCell>
                <mxCell id="7TPz35_8MEV45HYVAW2m-5" value="Image cap" style="html=1;shadow=0;dashed=0;shape=mxgraph.bootstrap.topButton;rSize=5;perimeter=none;whiteSpace=wrap;fillColor=#868E96;strokeColor=#DFDFDF;fontColor=#DEE2E6;resizeWidth=1;fontSize=18;opacity=25;" vertex="1" parent="7TPz35_8MEV45HYVAW2m-4">
                    <mxGeometry width="370" height="160" relative="1" as="geometry"/>
                </mxCell>
                <mxCell id="7TPz35_8MEV45HYVAW2m-12" value="" style="verticalLabelPosition=bottom;shadow=0;dashed=0;align=center;html=1;verticalAlign=top;strokeWidth=1;shape=mxgraph.mockup.graphics.pieChart;strokeColor=#008cff;parts=10,20,35;partColors=#e0e0e0,#d0d0d0,#c0c0c0,#b0b0b0,#a0a0a0;strokeWidth=2;fontColor=#000000;opacity=25;" vertex="1" parent="7TPz35_8MEV45HYVAW2m-4">
                    <mxGeometry x="115" y="10" width="140" height="120" as="geometry"/>
                </mxCell>
                <mxCell id="7TPz35_8MEV45HYVAW2m-6" value="&lt;span style=&quot;font-size: 20px&quot;&gt;&lt;b&gt;Service Assignments&lt;br&gt;&lt;/b&gt;&lt;/span&gt;&lt;br&gt;Tools and Equipment Checked out - Grouped by Service Assignment, which include people, jobsites, gangboxes, and vehicles.&amp;nbsp;" style="html=1;shadow=0;dashed=0;shape=mxgraph.bootstrap.rrect;rSize=5;strokeColor=#DFDFDF;html=1;whiteSpace=wrap;fillColor=#ffffff;fontColor=#000000;verticalAlign=top;align=left;spacing=20;spacingBottom=0;fontSize=14;spacingTop=160;opacity=25;" vertex="1" parent="QPSkaK19_1HOVtRi-PG8-1">
                    <mxGeometry x="460" y="140" width="370" height="290" as="geometry"/>
                </mxCell>
                <mxCell id="7TPz35_8MEV45HYVAW2m-7" value="Image cap" style="html=1;shadow=0;dashed=0;shape=mxgraph.bootstrap.topButton;rSize=5;perimeter=none;whiteSpace=wrap;fillColor=#868E96;strokeColor=#DFDFDF;fontColor=#DEE2E6;resizeWidth=1;fontSize=18;opacity=25;" vertex="1" parent="7TPz35_8MEV45HYVAW2m-6">
                    <mxGeometry width="370" height="160" relative="1" as="geometry"/>
                </mxCell>
                <mxCell id="7TPz35_8MEV45HYVAW2m-13" value="" style="verticalLabelPosition=bottom;shadow=0;dashed=0;align=center;html=1;verticalAlign=top;strokeWidth=1;shape=mxgraph.mockup.graphics.pieChart;strokeColor=#008cff;parts=10,20,35;partColors=#e0e0e0,#d0d0d0,#c0c0c0,#b0b0b0,#a0a0a0;strokeWidth=2;fontColor=#000000;opacity=25;" vertex="1" parent="7TPz35_8MEV45HYVAW2m-6">
                    <mxGeometry x="105" y="10" width="140" height="120" as="geometry"/>
                </mxCell>
                <mxCell id="7TPz35_8MEV45HYVAW2m-8" value="&lt;span style=&quot;font-size: 20px&quot;&gt;&lt;b&gt;Repair or Maintenance Needed&amp;nbsp;&lt;/b&gt;&lt;/span&gt;&lt;br&gt;&lt;br&gt;CI - Needs Repair &amp;amp; CO - Needs Repair&lt;br&gt;Default: Groups CI / CO, Then Service Assignment&amp;nbsp;" style="html=1;shadow=0;dashed=0;shape=mxgraph.bootstrap.rrect;rSize=5;strokeColor=#DFDFDF;html=1;whiteSpace=wrap;fillColor=#ffffff;fontColor=#000000;verticalAlign=top;align=left;spacing=20;spacingBottom=0;fontSize=14;spacingTop=160;opacity=25;" vertex="1" parent="QPSkaK19_1HOVtRi-PG8-1">
                    <mxGeometry x="70" y="440" width="370" height="270" as="geometry"/>
                </mxCell>
                <mxCell id="7TPz35_8MEV45HYVAW2m-9" value="Image cap" style="html=1;shadow=0;dashed=0;shape=mxgraph.bootstrap.topButton;rSize=5;perimeter=none;whiteSpace=wrap;fillColor=#868E96;strokeColor=#DFDFDF;fontColor=#DEE2E6;resizeWidth=1;fontSize=18;opacity=25;" vertex="1" parent="7TPz35_8MEV45HYVAW2m-8">
                    <mxGeometry width="370" height="160" relative="1" as="geometry"/>
                </mxCell>
                <mxCell id="7TPz35_8MEV45HYVAW2m-14" value="" style="verticalLabelPosition=bottom;shadow=0;dashed=0;align=center;html=1;verticalAlign=top;strokeWidth=1;shape=mxgraph.mockup.graphics.pieChart;strokeColor=#008cff;parts=10,20,35;partColors=#e0e0e0,#d0d0d0,#c0c0c0,#b0b0b0,#a0a0a0;strokeWidth=2;fontColor=#000000;opacity=25;" vertex="1" parent="7TPz35_8MEV45HYVAW2m-8">
                    <mxGeometry x="100" y="20" width="140" height="120" as="geometry"/>
                </mxCell>
                <mxCell id="7TPz35_8MEV45HYVAW2m-10" value="&lt;span style=&quot;font-size: 20px&quot;&gt;&lt;b&gt;Available Tools &amp;amp; Equipment&lt;br&gt;&lt;/b&gt;&lt;/span&gt;&lt;br&gt;Tools and Equipment Listed as CI - Available&lt;br&gt;Default: Groups by Service Assignement then PN" style="html=1;shadow=0;dashed=0;shape=mxgraph.bootstrap.rrect;rSize=5;strokeColor=#DFDFDF;html=1;whiteSpace=wrap;fillColor=#ffffff;fontColor=#000000;verticalAlign=top;align=left;spacing=20;spacingBottom=0;fontSize=14;spacingTop=160;opacity=25;" vertex="1" parent="QPSkaK19_1HOVtRi-PG8-1">
                    <mxGeometry x="70" y="140" width="370" height="290" as="geometry"/>
                </mxCell>
                <mxCell id="7TPz35_8MEV45HYVAW2m-11" value="Image cap" style="html=1;shadow=0;dashed=0;shape=mxgraph.bootstrap.topButton;rSize=5;perimeter=none;whiteSpace=wrap;fillColor=#868E96;strokeColor=#DFDFDF;fontColor=#DEE2E6;resizeWidth=1;fontSize=18;opacity=25;" vertex="1" parent="7TPz35_8MEV45HYVAW2m-10">
                    <mxGeometry width="370" height="160" relative="1" as="geometry"/>
                </mxCell>
                <mxCell id="7TPz35_8MEV45HYVAW2m-15" value="" style="verticalLabelPosition=bottom;shadow=0;dashed=0;align=center;html=1;verticalAlign=top;strokeWidth=1;shape=mxgraph.mockup.graphics.pieChart;strokeColor=#008cff;parts=10,20,35;partColors=#e0e0e0,#d0d0d0,#c0c0c0,#b0b0b0,#a0a0a0;strokeWidth=2;fontColor=#000000;opacity=25;" vertex="1" parent="7TPz35_8MEV45HYVAW2m-10">
                    <mxGeometry x="100" y="20" width="140" height="120" as="geometry"/>
                </mxCell>
                <mxCell id="QPSkaK19_1HOVtRi-PG8-2" value="Default Post-Login Home Page" style="text;strokeColor=none;fillColor=none;html=1;fontSize=24;fontStyle=1;verticalAlign=middle;align=center;fontColor=#000000;opacity=95;" vertex="1" parent="QPSkaK19_1HOVtRi-PG8-1">
                    <mxGeometry x="460" width="100" height="40" as="geometry"/>
                </mxCell>
            </root>
        </mxGraphModel>
    </diagram>
    <diagram id="3wEMcZyuM2_WqQuP5D39" name="Search Modals">
        <mxGraphModel dx="2055" dy="2303" grid="1" gridSize="10" guides="1" tooltips="1" connect="1" arrows="1" fold="1" page="1" pageScale="1" pageWidth="850" pageHeight="1100" math="0" shadow="0">
            <root>
                <mxCell id="rK9TrTpieJa72z45rWqX-0"/>
                <mxCell id="rK9TrTpieJa72z45rWqX-1" parent="rK9TrTpieJa72z45rWqX-0"/>
                <mxCell id="FqkWJK3URGdsV2I2DL8C-15" value="" style="shape=ext;double=1;rounded=1;whiteSpace=wrap;html=1;fontSize=25;fontColor=#000000;strokeColor=#999999;strokeWidth=2;fillColor=#FFFFFF;" vertex="1" parent="rK9TrTpieJa72z45rWqX-1">
                    <mxGeometry x="1180" y="-110" width="1080" height="760" as="geometry"/>
                </mxCell>
                <mxCell id="FqkWJK3URGdsV2I2DL8C-14" value="" style="shape=ext;double=1;rounded=1;whiteSpace=wrap;html=1;fontSize=25;fontColor=#000000;strokeColor=#999999;strokeWidth=2;fillColor=#FFFFFF;" vertex="1" parent="rK9TrTpieJa72z45rWqX-1">
                    <mxGeometry x="25" y="-120" width="1080" height="760" as="geometry"/>
                </mxCell>
                <mxCell id="LCGN1KdRYk5GfyBwMBNL-0" value="ToolKeeper" style="html=1;shadow=0;dashed=0;fillColor=#343A40;strokeColor=none;fontSize=16;fontColor=#ffffff;align=left;spacing=15;" vertex="1" parent="rK9TrTpieJa72z45rWqX-1">
                    <mxGeometry x="70" y="70" width="970" height="60" as="geometry"/>
                </mxCell>
                <mxCell id="LCGN1KdRYk5GfyBwMBNL-1" value="Dashboard" style="fillColor=none;strokeColor=none;fontSize=14;fontColor=#ffffff;align=center;" vertex="1" parent="LCGN1KdRYk5GfyBwMBNL-0">
                    <mxGeometry width="70" height="40" relative="1" as="geometry">
                        <mxPoint x="140" y="10" as="offset"/>
                    </mxGeometry>
                </mxCell>
                <mxCell id="LCGN1KdRYk5GfyBwMBNL-2" value="Check-Out" style="fillColor=none;strokeColor=none;fontSize=14;fontColor=#ffffff;align=center;" vertex="1" parent="LCGN1KdRYk5GfyBwMBNL-0">
                    <mxGeometry width="70" height="40" relative="1" as="geometry">
                        <mxPoint x="240" y="10" as="offset"/>
                    </mxGeometry>
                </mxCell>
                <mxCell id="LCGN1KdRYk5GfyBwMBNL-3" value="Check-In" style="fillColor=none;strokeColor=none;fontSize=14;fontColor=#ffffff;align=center;spacingRight=0;" vertex="1" parent="LCGN1KdRYk5GfyBwMBNL-0">
                    <mxGeometry width="80" height="40" relative="1" as="geometry">
                        <mxPoint x="320" y="10" as="offset"/>
                    </mxGeometry>
                </mxCell>
                <mxCell id="LCGN1KdRYk5GfyBwMBNL-4" value="displayName" style="html=1;shadow=0;dashed=0;shape=mxgraph.bootstrap.rrect;rSize=5;fontSize=14;fontColor=#1CA5B8;strokeColor=#1CA5B8;fillColor=none;align=center;" vertex="1" parent="LCGN1KdRYk5GfyBwMBNL-0">
                    <mxGeometry x="1" width="131" height="40" relative="1" as="geometry">
                        <mxPoint x="-141" y="10" as="offset"/>
                    </mxGeometry>
                </mxCell>
                <mxCell id="LCGN1KdRYk5GfyBwMBNL-5" value="" style="shape=triangle;direction=south;fillColor=#ffffff;strokeColor=none;perimeter=none;" vertex="1" parent="LCGN1KdRYk5GfyBwMBNL-0">
                    <mxGeometry x="1" y="0.5" width="10" height="5" relative="1" as="geometry">
                        <mxPoint x="-30" y="-2" as="offset"/>
                    </mxGeometry>
                </mxCell>
                <mxCell id="LCGN1KdRYk5GfyBwMBNL-6" value="Search By" style="html=1;shadow=0;dashed=0;shape=mxgraph.bootstrap.rrect;rSize=5;strokeColor=none;strokeWidth=1;fillColor=#6C767D;fontColor=#ffffff;whiteSpace=wrap;align=left;verticalAlign=middle;fontStyle=0;fontSize=14;spacingLeft=10;opacity=25;" vertex="1" parent="LCGN1KdRYk5GfyBwMBNL-0">
                    <mxGeometry x="415" y="10" width="140" height="40" as="geometry"/>
                </mxCell>
                <mxCell id="LCGN1KdRYk5GfyBwMBNL-7" value="" style="shape=triangle;direction=south;fillColor=#ffffff;strokeColor=none;perimeter=none;" vertex="1" parent="LCGN1KdRYk5GfyBwMBNL-6">
                    <mxGeometry x="1" y="0.5" width="10" height="5" relative="1" as="geometry">
                        <mxPoint x="-17" y="-2.5" as="offset"/>
                    </mxGeometry>
                </mxCell>
                <mxCell id="LCGN1KdRYk5GfyBwMBNL-14" value="" style="html=1;shadow=0;dashed=0;shape=mxgraph.bootstrap.rrect;rSize=5;fillColor=#ffffff;strokeColor=#999999;opacity=95;" vertex="1" parent="rK9TrTpieJa72z45rWqX-1">
                    <mxGeometry x="480" y="-20" width="170" height="90" as="geometry"/>
                </mxCell>
                <mxCell id="LCGN1KdRYk5GfyBwMBNL-15" value="Barcode" style="fillColor=#f5f5f5;strokeColor=#666666;align=left;spacing=20;fontSize=14;fontColor=#333333;" vertex="1" parent="LCGN1KdRYk5GfyBwMBNL-14">
                    <mxGeometry width="170" height="30" relative="1" as="geometry">
                        <mxPoint y="10" as="offset"/>
                    </mxGeometry>
                </mxCell>
                <mxCell id="LCGN1KdRYk5GfyBwMBNL-16" value="Serial Number" style="fillColor=none;strokeColor=none;align=left;spacing=20;fontSize=14;" vertex="1" parent="LCGN1KdRYk5GfyBwMBNL-14">
                    <mxGeometry width="170" height="30" relative="1" as="geometry">
                        <mxPoint y="35" as="offset"/>
                    </mxGeometry>
                </mxCell>
                <mxCell id="LCGN1KdRYk5GfyBwMBNL-18" value="Service Assignment" style="fillColor=none;strokeColor=none;align=left;spacing=20;fontSize=14;" vertex="1" parent="LCGN1KdRYk5GfyBwMBNL-14">
                    <mxGeometry y="68.73702755905512" width="160" height="21.25984251968504" as="geometry"/>
                </mxCell>
                <mxCell id="LCGN1KdRYk5GfyBwMBNL-50" value="&lt;span&gt;Search your ToolKeeper Database&lt;/span&gt;" style="html=1;shadow=0;dashed=0;shape=mxgraph.bootstrap.rrect;rSize=5;html=1;strokeColor=#C8C8C8;fillColor=#E6E6E6;whiteSpace=wrap;verticalAlign=top;align=left;fontSize=18;spacing=15;spacingTop=-5;fontColor=#000000;fontStyle=1" vertex="1" parent="rK9TrTpieJa72z45rWqX-1">
                    <mxGeometry x="220" y="670" width="410" height="370" as="geometry"/>
                </mxCell>
                <mxCell id="LCGN1KdRYk5GfyBwMBNL-51" value="" style="shape=line;strokeColor=#dddddd;resizeWidth=1;fontColor=#000000;opacity=25;" vertex="1" parent="LCGN1KdRYk5GfyBwMBNL-50">
                    <mxGeometry width="400" height="10" relative="1" as="geometry">
                        <mxPoint y="50" as="offset"/>
                    </mxGeometry>
                </mxCell>
                <mxCell id="LCGN1KdRYk5GfyBwMBNL-52" value="" style="html=1;shadow=0;dashed=0;shape=mxgraph.bootstrap.x;strokeColor=#868686;strokeWidth=2;fontColor=#000000;opacity=25;" vertex="1" parent="LCGN1KdRYk5GfyBwMBNL-50">
                    <mxGeometry x="1" width="8" height="8" relative="1" as="geometry">
                        <mxPoint x="-24" y="20" as="offset"/>
                    </mxGeometry>
                </mxCell>
                <mxCell id="LCGN1KdRYk5GfyBwMBNL-53" value="&lt;b&gt;Serial Number:&lt;/b&gt;" style="strokeColor=none;fillColor=none;resizeWidth=1;align=left;verticalAlign=top;spacing=10;fontSize=14;whiteSpace=wrap;html=1;fontColor=#000000;opacity=25;" vertex="1" parent="LCGN1KdRYk5GfyBwMBNL-50">
                    <mxGeometry width="400" height="40" relative="1" as="geometry">
                        <mxPoint y="60" as="offset"/>
                    </mxGeometry>
                </mxCell>
                <mxCell id="LCGN1KdRYk5GfyBwMBNL-54" value="&lt;span style=&quot;font-size: 12px ; text-align: left&quot;&gt;6as54df&lt;/span&gt;" style="html=1;shadow=0;dashed=0;shape=mxgraph.bootstrap.rrect;rSize=5;strokeColor=#FFFFFF;fillColor=#FFFFFF;align=right;verticalAlign=middle;spacing=10;fontSize=14;whiteSpace=wrap;html=1;fontColor=#000000;opacity=75;strokeWidth=2;" vertex="1" parent="LCGN1KdRYk5GfyBwMBNL-50">
                    <mxGeometry width="260" height="40" relative="1" as="geometry">
                        <mxPoint x="130" y="60" as="offset"/>
                    </mxGeometry>
                </mxCell>
                <mxCell id="LCGN1KdRYk5GfyBwMBNL-55" value="&lt;span style=&quot;font-size: 12px&quot;&gt;654612&lt;/span&gt;" style="html=1;shadow=0;dashed=0;shape=mxgraph.bootstrap.rrect;rSize=5;strokeColor=#FFFFFF;fillColor=none;align=left;verticalAlign=middle;spacing=10;fontSize=14;whiteSpace=wrap;html=1;fontColor=#000000;opacity=25;" vertex="1" parent="LCGN1KdRYk5GfyBwMBNL-50">
                    <mxGeometry width="150" height="30" relative="1" as="geometry">
                        <mxPoint x="10" y="170" as="offset"/>
                    </mxGeometry>
                </mxCell>
                <mxCell id="LCGN1KdRYk5GfyBwMBNL-56" value="" style="shape=line;strokeColor=#dddddd;resizeWidth=1;fontColor=#000000;opacity=25;" vertex="1" parent="LCGN1KdRYk5GfyBwMBNL-50">
                    <mxGeometry width="400" height="10" relative="1" as="geometry">
                        <mxPoint y="290" as="offset"/>
                    </mxGeometry>
                </mxCell>
                <mxCell id="LCGN1KdRYk5GfyBwMBNL-57" value="Search" style="html=1;shadow=0;dashed=0;shape=mxgraph.bootstrap.rrect;rSize=5;fillColor=#0085FC;strokeColor=none;fontColor=#FFFFFF;fontSize=14;opacity=25;" vertex="1" parent="LCGN1KdRYk5GfyBwMBNL-50">
                    <mxGeometry x="1" y="1" width="110" height="40" relative="1" as="geometry">
                        <mxPoint x="-130" y="-60" as="offset"/>
                    </mxGeometry>
                </mxCell>
                <mxCell id="LCGN1KdRYk5GfyBwMBNL-58" value="Close" style="html=1;shadow=0;dashed=0;shape=mxgraph.bootstrap.rrect;rSize=5;fillColor=#6C757D;strokeColor=none;fontColor=#FFFFFF;fontSize=14;opacity=25;" vertex="1" parent="LCGN1KdRYk5GfyBwMBNL-50">
                    <mxGeometry x="1" y="1" width="70" height="40" relative="1" as="geometry">
                        <mxPoint x="-220" y="-60" as="offset"/>
                    </mxGeometry>
                </mxCell>
                <mxCell id="LCGN1KdRYk5GfyBwMBNL-59" value="" style="line;strokeWidth=4;html=1;perimeter=backbonePerimeter;points=[];outlineConnect=0;fontColor=#CCCCCC;fillColor=#E6E6E6;opacity=10;" vertex="1" parent="LCGN1KdRYk5GfyBwMBNL-50">
                    <mxGeometry x="10" y="120" width="370" height="10" as="geometry"/>
                </mxCell>
                <mxCell id="LCGN1KdRYk5GfyBwMBNL-60" value="&lt;b&gt;Barcode #:&lt;/b&gt;" style="strokeColor=none;fillColor=none;resizeWidth=1;align=left;verticalAlign=top;spacing=10;fontSize=14;whiteSpace=wrap;html=1;fontColor=#000000;opacity=25;" vertex="1" parent="LCGN1KdRYk5GfyBwMBNL-50">
                    <mxGeometry x="5" y="130" width="155" height="40" as="geometry"/>
                </mxCell>
                <mxCell id="LCGN1KdRYk5GfyBwMBNL-61" value="&lt;span style=&quot;font-size: 12px&quot;&gt;ABC2103&lt;/span&gt;" style="html=1;shadow=0;dashed=0;shape=mxgraph.bootstrap.rrect;rSize=5;strokeColor=#FFFFFF;fillColor=none;align=left;verticalAlign=middle;spacing=10;fontSize=14;whiteSpace=wrap;html=1;fontColor=#000000;opacity=25;" vertex="1" parent="LCGN1KdRYk5GfyBwMBNL-50">
                    <mxGeometry x="190" y="170" width="170" height="30" as="geometry"/>
                </mxCell>
                <mxCell id="LCGN1KdRYk5GfyBwMBNL-62" value="&lt;b&gt;Part Number&lt;/b&gt;" style="strokeColor=none;fillColor=none;resizeWidth=1;align=left;verticalAlign=top;spacing=10;fontSize=14;whiteSpace=wrap;html=1;fontColor=#000000;opacity=25;" vertex="1" parent="LCGN1KdRYk5GfyBwMBNL-50">
                    <mxGeometry x="170" y="130" width="135" height="40" as="geometry"/>
                </mxCell>
                <mxCell id="LCGN1KdRYk5GfyBwMBNL-63" value="CI - Available" style="html=1;shadow=0;dashed=0;shape=mxgraph.bootstrap.rrect;rSize=5;strokeColor=#FFFFFF;fillColor=none;align=left;verticalAlign=middle;spacing=10;fontSize=14;whiteSpace=wrap;html=1;fontColor=#000000;opacity=25;" vertex="1" parent="LCGN1KdRYk5GfyBwMBNL-50">
                    <mxGeometry x="10" y="250" width="150" height="30" as="geometry"/>
                </mxCell>
                <mxCell id="LCGN1KdRYk5GfyBwMBNL-64" value="&lt;b&gt;Status:&lt;/b&gt;" style="strokeColor=none;fillColor=none;resizeWidth=1;align=left;verticalAlign=top;spacing=10;fontSize=14;whiteSpace=wrap;html=1;fontColor=#000000;opacity=25;" vertex="1" parent="LCGN1KdRYk5GfyBwMBNL-50">
                    <mxGeometry x="5" y="210" width="155" height="40" as="geometry"/>
                </mxCell>
                <mxCell id="LCGN1KdRYk5GfyBwMBNL-65" value="Shop - Toolroom" style="html=1;shadow=0;dashed=0;shape=mxgraph.bootstrap.rrect;rSize=5;strokeColor=#FFFFFF;fillColor=none;align=left;verticalAlign=middle;spacing=10;fontSize=14;whiteSpace=wrap;html=1;fontColor=#000000;opacity=25;" vertex="1" parent="LCGN1KdRYk5GfyBwMBNL-50">
                    <mxGeometry x="180" y="250" width="180" height="30" as="geometry"/>
                </mxCell>
                <mxCell id="LCGN1KdRYk5GfyBwMBNL-66" value="&lt;b&gt;Service Assignment&lt;/b&gt;" style="strokeColor=none;fillColor=none;resizeWidth=1;align=left;verticalAlign=top;spacing=10;fontSize=14;whiteSpace=wrap;html=1;fontColor=#000000;opacity=25;" vertex="1" parent="LCGN1KdRYk5GfyBwMBNL-50">
                    <mxGeometry x="175" y="210" width="155" height="40" as="geometry"/>
                </mxCell>
                <mxCell id="LCGN1KdRYk5GfyBwMBNL-67" value="&lt;span&gt;Search your ToolKeeper Database&lt;/span&gt;" style="html=1;shadow=0;dashed=0;shape=mxgraph.bootstrap.rrect;rSize=5;html=1;strokeColor=#C8C8C8;fillColor=#E6E6E6;whiteSpace=wrap;verticalAlign=top;align=left;fontSize=18;spacing=15;spacingTop=-5;fontColor=#000000;fontStyle=1" vertex="1" parent="rK9TrTpieJa72z45rWqX-1">
                    <mxGeometry x="1590" y="320" width="450" height="170" as="geometry"/>
                </mxCell>
                <mxCell id="LCGN1KdRYk5GfyBwMBNL-68" value="" style="shape=line;strokeColor=#dddddd;resizeWidth=1;fontColor=#000000;opacity=25;" vertex="1" parent="LCGN1KdRYk5GfyBwMBNL-67">
                    <mxGeometry width="439.0243902439025" height="10" relative="1" as="geometry">
                        <mxPoint y="50" as="offset"/>
                    </mxGeometry>
                </mxCell>
                <mxCell id="LCGN1KdRYk5GfyBwMBNL-69" value="" style="html=1;shadow=0;dashed=0;shape=mxgraph.bootstrap.x;strokeColor=#868686;strokeWidth=2;fontColor=#000000;opacity=25;" vertex="1" parent="LCGN1KdRYk5GfyBwMBNL-67">
                    <mxGeometry x="1" width="8" height="8" relative="1" as="geometry">
                        <mxPoint x="-24" y="20" as="offset"/>
                    </mxGeometry>
                </mxCell>
                <mxCell id="LCGN1KdRYk5GfyBwMBNL-71" value="MATC - Goodman South" style="html=1;shadow=0;dashed=0;shape=mxgraph.bootstrap.rrect;rSize=5;strokeColor=#FFFFFF;fillColor=#E6E6E6;align=right;verticalAlign=middle;spacing=10;fontSize=14;whiteSpace=wrap;html=1;fontColor=#000000;opacity=25;strokeWidth=2;" vertex="1" parent="LCGN1KdRYk5GfyBwMBNL-67">
                    <mxGeometry width="180" height="30" relative="1" as="geometry">
                        <mxPoint x="170" y="50" as="offset"/>
                    </mxGeometry>
                </mxCell>
                <mxCell id="LCGN1KdRYk5GfyBwMBNL-74" value="Search" style="html=1;shadow=0;dashed=0;shape=mxgraph.bootstrap.rrect;rSize=5;fillColor=#0085FC;strokeColor=none;fontColor=#FFFFFF;fontSize=14;opacity=25;" vertex="1" parent="LCGN1KdRYk5GfyBwMBNL-67">
                    <mxGeometry x="1" y="1" width="110" height="29" relative="1" as="geometry">
                        <mxPoint x="-130" y="-60" as="offset"/>
                    </mxGeometry>
                </mxCell>
                <mxCell id="LCGN1KdRYk5GfyBwMBNL-75" value="Close" style="html=1;shadow=0;dashed=0;shape=mxgraph.bootstrap.rrect;rSize=5;fillColor=#6C757D;strokeColor=none;fontColor=#FFFFFF;fontSize=14;opacity=25;" vertex="1" parent="LCGN1KdRYk5GfyBwMBNL-67">
                    <mxGeometry x="1" y="1" width="70" height="29" relative="1" as="geometry">
                        <mxPoint x="-220" y="-60" as="offset"/>
                    </mxGeometry>
                </mxCell>
                <mxCell id="LCGN1KdRYk5GfyBwMBNL-83" value="&lt;b&gt;Service Assignment&lt;/b&gt;" style="strokeColor=none;fillColor=none;resizeWidth=1;align=left;verticalAlign=top;spacing=10;fontSize=14;whiteSpace=wrap;html=1;fontColor=#000000;opacity=25;" vertex="1" parent="LCGN1KdRYk5GfyBwMBNL-67">
                    <mxGeometry y="44.35" width="170.125" height="35.65" as="geometry"/>
                </mxCell>
                <mxCell id="RenfgMaA7HCXvzJZLh4S-0" value="&lt;table cellpadding=&quot;4&quot; cellspacing=&quot;0&quot; border=&quot;1&quot; style=&quot;font-size: 1em ; width: 100% ; height: 100%&quot;&gt;&lt;tbody&gt;&lt;tr&gt;&lt;th&gt;Serial #&lt;/th&gt;&lt;th&gt;Barcode #&lt;/th&gt;&lt;td&gt;&lt;b&gt;Part Number&lt;/b&gt;&lt;/td&gt;&lt;td&gt;&lt;b&gt;Service Assignment&lt;/b&gt;&lt;/td&gt;&lt;td&gt;&lt;b&gt;Status&lt;/b&gt;&lt;/td&gt;&lt;td&gt;&lt;b&gt;Last Status Change&lt;/b&gt;&lt;/td&gt;&lt;/tr&gt;&lt;tr&gt;&lt;td&gt;6as54df&lt;/td&gt;&lt;td&gt;654612&lt;/td&gt;&lt;td&gt;ABC2103&lt;/td&gt;&lt;td&gt;Shop - Toolroom&lt;/td&gt;&lt;td&gt;CI - Available&lt;/td&gt;&lt;td&gt;11/28/2022&lt;/td&gt;&lt;/tr&gt;&lt;tr&gt;&lt;td&gt;3s2a56&lt;/td&gt;&lt;td&gt;654612&lt;/td&gt;&lt;td&gt;ABC2103&lt;/td&gt;&lt;td&gt;MATC - Goodman South&lt;/td&gt;&lt;td&gt;CO - Jobsite Assigned&lt;/td&gt;&lt;td&gt;12/01/2022&lt;/td&gt;&lt;/tr&gt;&lt;/tbody&gt;&lt;/table&gt; " style="verticalAlign=top;align=left;overflow=fill;fontSize=12;fontFamily=Helvetica;html=1;fontColor=#000000;strokeColor=#999999;strokeWidth=2;fillColor=#FFFFFF;opacity=10;" vertex="1" parent="rK9TrTpieJa72z45rWqX-1">
                    <mxGeometry x="80" y="170" width="620" height="80" as="geometry"/>
                </mxCell>
                <mxCell id="LCGN1KdRYk5GfyBwMBNL-31" value="&lt;span&gt;Search your ToolKeeper Database&lt;/span&gt;" style="html=1;shadow=0;dashed=0;shape=mxgraph.bootstrap.rrect;rSize=5;html=1;strokeColor=#C8C8C8;fillColor=#E6E6E6;whiteSpace=wrap;verticalAlign=top;align=left;fontSize=18;spacing=15;spacingTop=-5;fontColor=#000000;fontStyle=1" vertex="1" parent="rK9TrTpieJa72z45rWqX-1">
                    <mxGeometry x="380" y="270" width="410" height="190" as="geometry"/>
                </mxCell>
                <mxCell id="LCGN1KdRYk5GfyBwMBNL-32" value="" style="shape=line;strokeColor=#dddddd;resizeWidth=1;fontColor=#000000;opacity=25;" vertex="1" parent="LCGN1KdRYk5GfyBwMBNL-31">
                    <mxGeometry width="400" height="10" relative="1" as="geometry">
                        <mxPoint y="50" as="offset"/>
                    </mxGeometry>
                </mxCell>
                <mxCell id="LCGN1KdRYk5GfyBwMBNL-33" value="" style="html=1;shadow=0;dashed=0;shape=mxgraph.bootstrap.x;strokeColor=#868686;strokeWidth=2;fontColor=#000000;opacity=25;" vertex="1" parent="LCGN1KdRYk5GfyBwMBNL-31">
                    <mxGeometry x="1" width="8" height="8" relative="1" as="geometry">
                        <mxPoint x="-24" y="20" as="offset"/>
                    </mxGeometry>
                </mxCell>
                <mxCell id="LCGN1KdRYk5GfyBwMBNL-34" value="&lt;b&gt;Barcode #:&amp;nbsp;&lt;/b&gt;" style="strokeColor=none;fillColor=none;resizeWidth=1;align=left;verticalAlign=top;spacing=10;fontSize=14;whiteSpace=wrap;html=1;fontColor=#000000;opacity=25;" vertex="1" parent="LCGN1KdRYk5GfyBwMBNL-31">
                    <mxGeometry width="400" height="40" relative="1" as="geometry">
                        <mxPoint y="60" as="offset"/>
                    </mxGeometry>
                </mxCell>
                <mxCell id="LCGN1KdRYk5GfyBwMBNL-35" value="654612" style="html=1;shadow=0;dashed=0;shape=mxgraph.bootstrap.rrect;rSize=5;strokeColor=#FFFFFF;fillColor=#E6E6E6;align=right;verticalAlign=middle;spacing=10;fontSize=14;whiteSpace=wrap;html=1;fontColor=#000000;opacity=25;strokeWidth=2;" vertex="1" parent="LCGN1KdRYk5GfyBwMBNL-31">
                    <mxGeometry width="300" height="40" relative="1" as="geometry">
                        <mxPoint x="90" y="60" as="offset"/>
                    </mxGeometry>
                </mxCell>
                <mxCell id="LCGN1KdRYk5GfyBwMBNL-39" value="Search" style="html=1;shadow=0;dashed=0;shape=mxgraph.bootstrap.rrect;rSize=5;fillColor=#0085FC;strokeColor=none;fontColor=#FFFFFF;fontSize=14;opacity=25;" vertex="1" parent="LCGN1KdRYk5GfyBwMBNL-31">
                    <mxGeometry x="1" y="1" width="110" height="40" relative="1" as="geometry">
                        <mxPoint x="-130" y="-60" as="offset"/>
                    </mxGeometry>
                </mxCell>
                <mxCell id="LCGN1KdRYk5GfyBwMBNL-40" value="Close" style="html=1;shadow=0;dashed=0;shape=mxgraph.bootstrap.rrect;rSize=5;fillColor=#6C757D;strokeColor=none;fontColor=#FFFFFF;fontSize=14;opacity=25;" vertex="1" parent="LCGN1KdRYk5GfyBwMBNL-31">
                    <mxGeometry x="1" y="1" width="70" height="40" relative="1" as="geometry">
                        <mxPoint x="-220" y="-60" as="offset"/>
                    </mxGeometry>
                </mxCell>
                <mxCell id="FqkWJK3URGdsV2I2DL8C-0" value="&lt;table cellpadding=&quot;4&quot; cellspacing=&quot;0&quot; border=&quot;1&quot; style=&quot;font-size: 1em ; width: 100% ; height: 100%&quot;&gt;&lt;tbody&gt;&lt;tr&gt;&lt;th&gt;Serial #&lt;/th&gt;&lt;th&gt;Barcode #&lt;/th&gt;&lt;td&gt;&lt;b&gt;Part Number&lt;/b&gt;&lt;/td&gt;&lt;td&gt;&lt;b&gt;Service Assignment&lt;/b&gt;&lt;/td&gt;&lt;td&gt;&lt;b&gt;Status&lt;/b&gt;&lt;/td&gt;&lt;td&gt;&lt;b&gt;Last Status Change&lt;/b&gt;&lt;/td&gt;&lt;/tr&gt;&lt;tr&gt;&lt;td&gt;a65sd4f&lt;/td&gt;&lt;td&gt;165845&lt;/td&gt;&lt;td&gt;6a7874asd&lt;/td&gt;&lt;td&gt;MATC - Goodman South&lt;/td&gt;&lt;td&gt;CO - Jobsite Assigned&lt;/td&gt;&lt;td&gt;11/28/2022&lt;/td&gt;&lt;/tr&gt;&lt;tr&gt;&lt;td&gt;3s2a56&lt;/td&gt;&lt;td&gt;654612&lt;/td&gt;&lt;td&gt;ABC2103&lt;/td&gt;&lt;td&gt;MATC - Goodman South&lt;/td&gt;&lt;td&gt;CO - Jobsite Assigned&lt;/td&gt;&lt;td&gt;12/01/2022&lt;/td&gt;&lt;/tr&gt;&lt;/tbody&gt;&lt;/table&gt; " style="verticalAlign=top;align=left;overflow=fill;fontSize=12;fontFamily=Helvetica;html=1;fontColor=#000000;strokeColor=#999999;strokeWidth=2;fillColor=#FFFFFF;opacity=10;" vertex="1" parent="rK9TrTpieJa72z45rWqX-1">
                    <mxGeometry x="1300" y="170" width="620" height="80" as="geometry"/>
                </mxCell>
                <mxCell id="FqkWJK3URGdsV2I2DL8C-1" value="ToolKeeper" style="html=1;shadow=0;dashed=0;fillColor=#343A40;strokeColor=none;fontSize=16;fontColor=#ffffff;align=left;spacing=15;" vertex="1" parent="rK9TrTpieJa72z45rWqX-1">
                    <mxGeometry x="1275" y="80" width="970" height="60" as="geometry"/>
                </mxCell>
                <mxCell id="FqkWJK3URGdsV2I2DL8C-2" value="Dashboard" style="fillColor=none;strokeColor=none;fontSize=14;fontColor=#ffffff;align=center;" vertex="1" parent="FqkWJK3URGdsV2I2DL8C-1">
                    <mxGeometry width="70" height="40" relative="1" as="geometry">
                        <mxPoint x="140" y="10" as="offset"/>
                    </mxGeometry>
                </mxCell>
                <mxCell id="FqkWJK3URGdsV2I2DL8C-3" value="Check-Out" style="fillColor=none;strokeColor=none;fontSize=14;fontColor=#ffffff;align=center;" vertex="1" parent="FqkWJK3URGdsV2I2DL8C-1">
                    <mxGeometry width="70" height="40" relative="1" as="geometry">
                        <mxPoint x="240" y="10" as="offset"/>
                    </mxGeometry>
                </mxCell>
                <mxCell id="FqkWJK3URGdsV2I2DL8C-4" value="Check-In" style="fillColor=none;strokeColor=none;fontSize=14;fontColor=#ffffff;align=center;spacingRight=0;" vertex="1" parent="FqkWJK3URGdsV2I2DL8C-1">
                    <mxGeometry width="80" height="40" relative="1" as="geometry">
                        <mxPoint x="320" y="10" as="offset"/>
                    </mxGeometry>
                </mxCell>
                <mxCell id="FqkWJK3URGdsV2I2DL8C-5" value="displayName" style="html=1;shadow=0;dashed=0;shape=mxgraph.bootstrap.rrect;rSize=5;fontSize=14;fontColor=#1CA5B8;strokeColor=#1CA5B8;fillColor=none;align=center;" vertex="1" parent="FqkWJK3URGdsV2I2DL8C-1">
                    <mxGeometry x="1" width="131" height="40" relative="1" as="geometry">
                        <mxPoint x="-141" y="10" as="offset"/>
                    </mxGeometry>
                </mxCell>
                <mxCell id="FqkWJK3URGdsV2I2DL8C-6" value="" style="shape=triangle;direction=south;fillColor=#ffffff;strokeColor=none;perimeter=none;" vertex="1" parent="FqkWJK3URGdsV2I2DL8C-1">
                    <mxGeometry x="1" y="0.5" width="10" height="5" relative="1" as="geometry">
                        <mxPoint x="-30" y="-2" as="offset"/>
                    </mxGeometry>
                </mxCell>
                <mxCell id="FqkWJK3URGdsV2I2DL8C-7" value="Search By" style="html=1;shadow=0;dashed=0;shape=mxgraph.bootstrap.rrect;rSize=5;strokeColor=none;strokeWidth=1;fillColor=#6C767D;fontColor=#ffffff;whiteSpace=wrap;align=left;verticalAlign=middle;fontStyle=0;fontSize=14;spacingLeft=10;opacity=25;" vertex="1" parent="FqkWJK3URGdsV2I2DL8C-1">
                    <mxGeometry x="415" y="10" width="140" height="40" as="geometry"/>
                </mxCell>
                <mxCell id="FqkWJK3URGdsV2I2DL8C-8" value="" style="shape=triangle;direction=south;fillColor=#ffffff;strokeColor=none;perimeter=none;" vertex="1" parent="FqkWJK3URGdsV2I2DL8C-7">
                    <mxGeometry x="1" y="0.5" width="10" height="5" relative="1" as="geometry">
                        <mxPoint x="-17" y="-2.5" as="offset"/>
                    </mxGeometry>
                </mxCell>
                <mxCell id="FqkWJK3URGdsV2I2DL8C-18" value="" style="html=1;shadow=0;dashed=0;shape=mxgraph.bootstrap.rrect;rSize=5;fillColor=#ffffff;strokeColor=#999999;opacity=95;" vertex="1" parent="rK9TrTpieJa72z45rWqX-1">
                    <mxGeometry x="1680" y="-10" width="170" height="90" as="geometry"/>
                </mxCell>
                <mxCell id="FqkWJK3URGdsV2I2DL8C-19" value="Barcode" style="fillColor=none;strokeColor=#666666;align=left;spacing=20;fontSize=14;fontColor=#333333;" vertex="1" parent="FqkWJK3URGdsV2I2DL8C-18">
                    <mxGeometry width="170" height="30" relative="1" as="geometry">
                        <mxPoint y="60" as="offset"/>
                    </mxGeometry>
                </mxCell>
                <mxCell id="FqkWJK3URGdsV2I2DL8C-20" value="Serial Number" style="fillColor=none;strokeColor=none;align=left;spacing=20;fontSize=14;" vertex="1" parent="FqkWJK3URGdsV2I2DL8C-18">
                    <mxGeometry width="170" height="30" relative="1" as="geometry">
                        <mxPoint y="35" as="offset"/>
                    </mxGeometry>
                </mxCell>
                <mxCell id="FqkWJK3URGdsV2I2DL8C-21" value="Service Assignment" style="fillColor=#f5f5f5;strokeColor=#666666;align=left;spacing=20;fontSize=14;fontColor=#333333;" vertex="1" parent="FqkWJK3URGdsV2I2DL8C-18">
                    <mxGeometry width="165" height="30" as="geometry"/>
                </mxCell>
                <mxCell id="pnK05HLGZbUSv_w0REFn-0" value="&lt;font color=&quot;#000000&quot;&gt;Modal Search Prompt via Barcode&lt;br&gt;Results displayed in Table with header&lt;br&gt;&lt;/font&gt;" style="text;strokeColor=none;fillColor=none;html=1;fontSize=24;fontStyle=1;verticalAlign=middle;align=center;fontColor=#B3B3B3;opacity=10;" vertex="1" parent="rK9TrTpieJa72z45rWqX-1">
                    <mxGeometry x="470" y="-110" width="100" height="40" as="geometry"/>
                </mxCell>
                <mxCell id="pnK05HLGZbUSv_w0REFn-1" value="&lt;font color=&quot;#000000&quot;&gt;Modal Search Prompt via Service Assignment&lt;br&gt;Results displayed in Table with header&lt;br&gt;&lt;/font&gt;" style="text;strokeColor=none;fillColor=none;html=1;fontSize=24;fontStyle=1;verticalAlign=middle;align=center;fontColor=#B3B3B3;opacity=10;" vertex="1" parent="rK9TrTpieJa72z45rWqX-1">
                    <mxGeometry x="1640" y="-90" width="100" height="40" as="geometry"/>
                </mxCell>
                <mxCell id="pnK05HLGZbUSv_w0REFn-2" value="&lt;font color=&quot;#000000&quot;&gt;Modal Search Prompt via Serial Number&lt;br&gt;Results displayed in modal as Read-Only&lt;br&gt;&lt;/font&gt;" style="text;strokeColor=none;fillColor=none;html=1;fontSize=24;fontStyle=1;verticalAlign=middle;align=center;fontColor=#B3B3B3;opacity=10;" vertex="1" parent="rK9TrTpieJa72z45rWqX-1">
                    <mxGeometry x="820" y="1000" width="100" height="40" as="geometry"/>
                </mxCell>
            </root>
        </mxGraphModel>
    </diagram>
    <diagram id="DLhL2tdmF3yMOweRJRtk" name="Check in/out modals">
        <mxGraphModel dx="3340" dy="1955" grid="0" gridSize="10" guides="1" tooltips="1" connect="1" arrows="1" fold="1" page="1" pageScale="1" pageWidth="850" pageHeight="1100" math="0" shadow="0">
            <root>
                <mxCell id="pwnMJd_0pTO5JbHJn0oR-0"/>
                <mxCell id="pwnMJd_0pTO5JbHJn0oR-1" parent="pwnMJd_0pTO5JbHJn0oR-0"/>
                <mxCell id="mgZu2CiqmV2a8ZWaujMM-117" value="" style="shape=ext;double=1;rounded=1;whiteSpace=wrap;html=1;fontSize=12;fontColor=#B3B3B3;strokeColor=#999999;strokeWidth=2;fillColor=#B3B3B3;opacity=10;" vertex="1" parent="pwnMJd_0pTO5JbHJn0oR-1">
                    <mxGeometry x="16" y="49" width="1170" height="985" as="geometry"/>
                </mxCell>
                <mxCell id="mgZu2CiqmV2a8ZWaujMM-0" value="ToolKeeper" style="html=1;shadow=0;dashed=0;fillColor=#343A40;strokeColor=none;fontSize=16;fontColor=#ffffff;align=left;spacing=15;" vertex="1" parent="pwnMJd_0pTO5JbHJn0oR-1">
                    <mxGeometry x="73" y="111" width="970" height="60" as="geometry"/>
                </mxCell>
                <mxCell id="mgZu2CiqmV2a8ZWaujMM-1" value="Dashboard" style="fillColor=none;strokeColor=none;fontSize=14;fontColor=#ffffff;align=center;" vertex="1" parent="mgZu2CiqmV2a8ZWaujMM-0">
                    <mxGeometry width="70" height="40" relative="1" as="geometry">
                        <mxPoint x="140" y="10" as="offset"/>
                    </mxGeometry>
                </mxCell>
                <mxCell id="mgZu2CiqmV2a8ZWaujMM-2" value="Check-Out" style="fillColor=none;strokeColor=none;fontSize=14;fontColor=#ffffff;align=center;" vertex="1" parent="mgZu2CiqmV2a8ZWaujMM-0">
                    <mxGeometry width="70" height="40" relative="1" as="geometry">
                        <mxPoint x="240" y="10" as="offset"/>
                    </mxGeometry>
                </mxCell>
                <mxCell id="mgZu2CiqmV2a8ZWaujMM-3" value="Check-In" style="fillColor=none;strokeColor=none;fontSize=14;fontColor=#ffffff;align=center;spacingRight=0;" vertex="1" parent="mgZu2CiqmV2a8ZWaujMM-0">
                    <mxGeometry width="80" height="40" relative="1" as="geometry">
                        <mxPoint x="320" y="10" as="offset"/>
                    </mxGeometry>
                </mxCell>
                <mxCell id="mgZu2CiqmV2a8ZWaujMM-4" value="displayName" style="html=1;shadow=0;dashed=0;shape=mxgraph.bootstrap.rrect;rSize=5;fontSize=14;fontColor=#1CA5B8;strokeColor=#1CA5B8;fillColor=none;align=center;" vertex="1" parent="mgZu2CiqmV2a8ZWaujMM-0">
                    <mxGeometry x="1" width="131" height="40" relative="1" as="geometry">
                        <mxPoint x="-141" y="10" as="offset"/>
                    </mxGeometry>
                </mxCell>
                <mxCell id="mgZu2CiqmV2a8ZWaujMM-5" value="" style="shape=triangle;direction=south;fillColor=#ffffff;strokeColor=none;perimeter=none;" vertex="1" parent="mgZu2CiqmV2a8ZWaujMM-0">
                    <mxGeometry x="1" y="0.5" width="10" height="5" relative="1" as="geometry">
                        <mxPoint x="-30" y="-2" as="offset"/>
                    </mxGeometry>
                </mxCell>
                <mxCell id="mgZu2CiqmV2a8ZWaujMM-6" value="Search By" style="html=1;shadow=0;dashed=0;shape=mxgraph.bootstrap.rrect;rSize=5;strokeColor=none;strokeWidth=1;fillColor=#6C767D;fontColor=#ffffff;whiteSpace=wrap;align=left;verticalAlign=middle;fontStyle=0;fontSize=14;spacingLeft=10;opacity=25;" vertex="1" parent="mgZu2CiqmV2a8ZWaujMM-0">
                    <mxGeometry x="415" y="10" width="140" height="40" as="geometry"/>
                </mxCell>
                <mxCell id="mgZu2CiqmV2a8ZWaujMM-7" value="" style="shape=triangle;direction=south;fillColor=#ffffff;strokeColor=none;perimeter=none;" vertex="1" parent="mgZu2CiqmV2a8ZWaujMM-6">
                    <mxGeometry x="1" y="0.5" width="10" height="5" relative="1" as="geometry">
                        <mxPoint x="-17" y="-2.5" as="offset"/>
                    </mxGeometry>
                </mxCell>
                <mxCell id="mgZu2CiqmV2a8ZWaujMM-116" value="" style="group" vertex="1" connectable="0" parent="pwnMJd_0pTO5JbHJn0oR-1">
                    <mxGeometry x="138" y="221" width="930" height="763" as="geometry"/>
                </mxCell>
                <mxCell id="mgZu2CiqmV2a8ZWaujMM-13" value="&lt;font color=&quot;#cccccc&quot;&gt;&lt;span style=&quot;font-size: 20px&quot;&gt;&lt;b&gt;Tools&lt;/b&gt;&lt;/span&gt;&lt;br&gt;&lt;br&gt;Filters out archived tools only..&lt;br&gt;Default Sorts by Serial Number&lt;/font&gt;" style="html=1;shadow=0;dashed=0;shape=mxgraph.bootstrap.rrect;rSize=5;strokeColor=#DFDFDF;html=1;whiteSpace=wrap;fillColor=#ffffff;fontColor=#000000;verticalAlign=top;align=left;spacing=20;spacingBottom=0;fontSize=14;spacingTop=160;opacity=10;" vertex="1" parent="mgZu2CiqmV2a8ZWaujMM-116">
                    <mxGeometry x="410" y="313" width="520" height="450" as="geometry"/>
                </mxCell>
                <mxCell id="mgZu2CiqmV2a8ZWaujMM-14" value="Image cap" style="html=1;shadow=0;dashed=0;shape=mxgraph.bootstrap.topButton;rSize=5;perimeter=none;whiteSpace=wrap;fillColor=#868E96;strokeColor=#DFDFDF;fontColor=#DEE2E6;resizeWidth=1;fontSize=18;opacity=25;" vertex="1" parent="mgZu2CiqmV2a8ZWaujMM-13">
                    <mxGeometry width="370" height="160" relative="1" as="geometry"/>
                </mxCell>
                <mxCell id="mgZu2CiqmV2a8ZWaujMM-15" value="" style="verticalLabelPosition=bottom;shadow=0;dashed=0;align=center;html=1;verticalAlign=top;strokeWidth=1;shape=mxgraph.mockup.graphics.pieChart;strokeColor=#008cff;parts=10,20,35;partColors=#e0e0e0,#d0d0d0,#c0c0c0,#b0b0b0,#a0a0a0;strokeWidth=2;fontColor=#000000;opacity=25;" vertex="1" parent="mgZu2CiqmV2a8ZWaujMM-13">
                    <mxGeometry x="115" y="10" width="140" height="120" as="geometry"/>
                </mxCell>
                <mxCell id="mgZu2CiqmV2a8ZWaujMM-19" value="&lt;font color=&quot;#cccccc&quot;&gt;&lt;span style=&quot;font-size: 20px&quot;&gt;&lt;b&gt;Manufacturers&lt;/b&gt;&lt;/span&gt;&lt;br&gt;&lt;br&gt;Groups tools by manufacturer&lt;br&gt;Default sort ascending alphabetic&lt;/font&gt;" style="html=1;shadow=0;dashed=0;shape=mxgraph.bootstrap.rrect;rSize=5;strokeColor=#DFDFDF;html=1;whiteSpace=wrap;fillColor=#ffffff;fontColor=#000000;verticalAlign=top;align=left;spacing=20;spacingBottom=0;fontSize=14;spacingTop=160;opacity=10;" vertex="1" parent="mgZu2CiqmV2a8ZWaujMM-13">
                    <mxGeometry x="-410" y="10" width="930" height="440" as="geometry"/>
                </mxCell>
                <mxCell id="mgZu2CiqmV2a8ZWaujMM-20" value="Image cap" style="html=1;shadow=0;dashed=0;shape=mxgraph.bootstrap.topButton;rSize=5;perimeter=none;whiteSpace=wrap;fillColor=#868E96;strokeColor=#DFDFDF;fontColor=#DEE2E6;resizeWidth=1;fontSize=18;opacity=25;" vertex="1" parent="mgZu2CiqmV2a8ZWaujMM-19">
                    <mxGeometry width="370" height="160" relative="1" as="geometry"/>
                </mxCell>
                <mxCell id="mgZu2CiqmV2a8ZWaujMM-21" value="" style="verticalLabelPosition=bottom;shadow=0;dashed=0;align=center;html=1;verticalAlign=top;strokeWidth=1;shape=mxgraph.mockup.graphics.pieChart;strokeColor=#008cff;parts=10,20,35;partColors=#e0e0e0,#d0d0d0,#c0c0c0,#b0b0b0,#a0a0a0;strokeWidth=2;fontColor=#000000;opacity=25;" vertex="1" parent="mgZu2CiqmV2a8ZWaujMM-19">
                    <mxGeometry x="100" y="20" width="140" height="120" as="geometry"/>
                </mxCell>
                <mxCell id="mgZu2CiqmV2a8ZWaujMM-16" value="&lt;font color=&quot;#cccccc&quot;&gt;&lt;span style=&quot;font-size: 20px&quot;&gt;&lt;b&gt;Service Assignments&lt;br&gt;&lt;/b&gt;&lt;/span&gt;&lt;br&gt;Services assignments could include people, jobsites, gangboxes, and vehicles. It's basically what a tool is checked out to.&lt;/font&gt;" style="html=1;shadow=0;dashed=0;shape=mxgraph.bootstrap.rrect;rSize=5;strokeColor=#DFDFDF;html=1;whiteSpace=wrap;fillColor=#ffffff;fontColor=#000000;verticalAlign=top;align=left;spacing=20;spacingBottom=0;fontSize=14;spacingTop=160;opacity=10;" vertex="1" parent="mgZu2CiqmV2a8ZWaujMM-116">
                    <mxGeometry x="405" width="370" height="290" as="geometry"/>
                </mxCell>
                <mxCell id="mgZu2CiqmV2a8ZWaujMM-17" value="Image cap" style="html=1;shadow=0;dashed=0;shape=mxgraph.bootstrap.topButton;rSize=5;perimeter=none;whiteSpace=wrap;fillColor=#868E96;strokeColor=#DFDFDF;fontColor=#DEE2E6;resizeWidth=1;fontSize=18;opacity=25;" vertex="1" parent="mgZu2CiqmV2a8ZWaujMM-16">
                    <mxGeometry width="370" height="160" relative="1" as="geometry"/>
                </mxCell>
                <mxCell id="mgZu2CiqmV2a8ZWaujMM-18" value="" style="verticalLabelPosition=bottom;shadow=0;dashed=0;align=center;html=1;verticalAlign=top;strokeWidth=1;shape=mxgraph.mockup.graphics.pieChart;strokeColor=#008cff;parts=10,20,35;partColors=#e0e0e0,#d0d0d0,#c0c0c0,#b0b0b0,#a0a0a0;strokeWidth=2;fontColor=#000000;opacity=25;" vertex="1" parent="mgZu2CiqmV2a8ZWaujMM-16">
                    <mxGeometry x="105" y="10" width="140" height="120" as="geometry"/>
                </mxCell>
                <mxCell id="mgZu2CiqmV2a8ZWaujMM-22" value="&lt;font color=&quot;#cccccc&quot;&gt;&lt;span style=&quot;font-size: 20px&quot;&gt;&lt;b&gt;Available Tools &amp;amp; Equipment&lt;br&gt;&lt;/b&gt;&lt;/span&gt;&lt;br&gt;This is a wider card with supporting text below as a natural lead-in to additional content. This content is a little bit longer.&lt;/font&gt;" style="html=1;shadow=0;dashed=0;shape=mxgraph.bootstrap.rrect;rSize=5;strokeColor=#DFDFDF;html=1;whiteSpace=wrap;fillColor=#ffffff;fontColor=#000000;verticalAlign=top;align=left;spacing=20;spacingBottom=0;fontSize=14;spacingTop=160;opacity=10;" vertex="1" parent="mgZu2CiqmV2a8ZWaujMM-116">
                    <mxGeometry y="1" width="572" height="414" as="geometry"/>
                </mxCell>
                <mxCell id="mgZu2CiqmV2a8ZWaujMM-23" value="Image cap" style="html=1;shadow=0;dashed=0;shape=mxgraph.bootstrap.topButton;rSize=5;perimeter=none;whiteSpace=wrap;fillColor=#868E96;strokeColor=#DFDFDF;fontColor=#DEE2E6;resizeWidth=1;fontSize=18;opacity=25;" vertex="1" parent="mgZu2CiqmV2a8ZWaujMM-22">
                    <mxGeometry width="320.4198488870736" height="160" relative="1" as="geometry"/>
                </mxCell>
                <mxCell id="mgZu2CiqmV2a8ZWaujMM-24" value="" style="verticalLabelPosition=bottom;shadow=0;dashed=0;align=center;html=1;verticalAlign=top;strokeWidth=1;shape=mxgraph.mockup.graphics.pieChart;strokeColor=#008cff;parts=10,20,35;partColors=#e0e0e0,#d0d0d0,#c0c0c0,#b0b0b0,#a0a0a0;strokeWidth=2;fontColor=#000000;opacity=25;" vertex="1" parent="mgZu2CiqmV2a8ZWaujMM-22">
                    <mxGeometry x="86.59995915866855" y="20" width="121.23994282213597" height="120" as="geometry"/>
                </mxCell>
                <mxCell id="mgZu2CiqmV2a8ZWaujMM-89" value="Enter The Equpment To Check-In" style="html=1;shadow=0;dashed=0;shape=mxgraph.bootstrap.rrect;rSize=5;html=1;strokeColor=#C8C8C8;fillColor=#E6E6E6;whiteSpace=wrap;verticalAlign=top;align=left;fontSize=18;spacing=15;spacingTop=-5;fontColor=#000000;fontStyle=1" vertex="1" parent="mgZu2CiqmV2a8ZWaujMM-22">
                    <mxGeometry x="232" y="223" width="340" height="191" as="geometry"/>
                </mxCell>
                <mxCell id="mgZu2CiqmV2a8ZWaujMM-90" value="" style="shape=line;strokeColor=#dddddd;resizeWidth=1;fontColor=#000000;opacity=25;" vertex="1" parent="mgZu2CiqmV2a8ZWaujMM-89">
                    <mxGeometry width="331.70731707317066" height="10" relative="1" as="geometry">
                        <mxPoint y="50" as="offset"/>
                    </mxGeometry>
                </mxCell>
                <mxCell id="mgZu2CiqmV2a8ZWaujMM-91" value="" style="html=1;shadow=0;dashed=0;shape=mxgraph.bootstrap.x;strokeColor=#868686;strokeWidth=2;fontColor=#000000;opacity=25;" vertex="1" parent="mgZu2CiqmV2a8ZWaujMM-89">
                    <mxGeometry x="1" width="8" height="8" relative="1" as="geometry">
                        <mxPoint x="-24" y="20" as="offset"/>
                    </mxGeometry>
                </mxCell>
                <mxCell id="mgZu2CiqmV2a8ZWaujMM-92" value="&lt;b style=&quot;font-size: 12px&quot;&gt;Serial Number(s):&lt;br&gt;&lt;font color=&quot;#b3b3b3&quot;&gt;one per new line&lt;/font&gt;&lt;br&gt;&lt;/b&gt;" style="strokeColor=none;fillColor=none;resizeWidth=1;align=left;verticalAlign=top;spacing=10;fontSize=14;whiteSpace=wrap;html=1;fontColor=#000000;opacity=25;" vertex="1" parent="mgZu2CiqmV2a8ZWaujMM-89">
                    <mxGeometry width="76" height="110" relative="1" as="geometry">
                        <mxPoint x="11" y="29" as="offset"/>
                    </mxGeometry>
                </mxCell>
                <mxCell id="mgZu2CiqmV2a8ZWaujMM-93" value="1234657&lt;br&gt;5461254&lt;br&gt;6548412," style="html=1;shadow=0;dashed=0;shape=mxgraph.bootstrap.rrect;rSize=5;strokeColor=#FFFFFF;fillColor=#FFFFFF;align=left;verticalAlign=middle;spacing=10;fontSize=14;whiteSpace=wrap;html=1;fontColor=#000000;opacity=25;strokeWidth=2;" vertex="1" parent="mgZu2CiqmV2a8ZWaujMM-89">
                    <mxGeometry width="210" height="65" relative="1" as="geometry">
                        <mxPoint x="94" y="43" as="offset"/>
                    </mxGeometry>
                </mxCell>
                <mxCell id="mgZu2CiqmV2a8ZWaujMM-95" value="" style="shape=line;strokeColor=#dddddd;resizeWidth=1;fontColor=#000000;opacity=25;" vertex="1" parent="mgZu2CiqmV2a8ZWaujMM-89">
                    <mxGeometry width="331.70731707317066" height="10" relative="1" as="geometry">
                        <mxPoint y="290" as="offset"/>
                    </mxGeometry>
                </mxCell>
                <mxCell id="mgZu2CiqmV2a8ZWaujMM-96" value="Confirm" style="html=1;shadow=0;dashed=0;shape=mxgraph.bootstrap.rrect;rSize=5;fillColor=#0085FC;strokeColor=none;fontColor=#FFFFFF;fontSize=14;opacity=25;" vertex="1" parent="mgZu2CiqmV2a8ZWaujMM-89">
                    <mxGeometry x="1" y="1" width="110" height="40" relative="1" as="geometry">
                        <mxPoint x="-127" y="-53" as="offset"/>
                    </mxGeometry>
                </mxCell>
                <mxCell id="mgZu2CiqmV2a8ZWaujMM-97" value="Cancel" style="html=1;shadow=0;dashed=0;shape=mxgraph.bootstrap.rrect;rSize=5;fillColor=#6C757D;strokeColor=none;fontColor=#FFFFFF;fontSize=14;opacity=25;" vertex="1" parent="mgZu2CiqmV2a8ZWaujMM-89">
                    <mxGeometry x="1" y="1" width="70" height="40" relative="1" as="geometry">
                        <mxPoint x="-205" y="-55" as="offset"/>
                    </mxGeometry>
                </mxCell>
                <mxCell id="mgZu2CiqmV2a8ZWaujMM-118" value="&lt;font color=&quot;#000000&quot;&gt;Enter/Scan Serial Numbers To Check In&lt;/font&gt;" style="text;strokeColor=none;fillColor=none;html=1;fontSize=24;fontStyle=1;verticalAlign=middle;align=center;fontColor=#B3B3B3;opacity=10;" vertex="1" parent="pwnMJd_0pTO5JbHJn0oR-1">
                    <mxGeometry x="514" y="69" width="100" height="40" as="geometry"/>
                </mxCell>
                <mxCell id="mgZu2CiqmV2a8ZWaujMM-142" value="" style="shape=ext;double=1;rounded=1;whiteSpace=wrap;html=1;fontSize=12;fontColor=#B3B3B3;strokeColor=#999999;strokeWidth=2;fillColor=#B3B3B3;opacity=10;" vertex="1" parent="pwnMJd_0pTO5JbHJn0oR-1">
                    <mxGeometry x="1334" y="52" width="1170" height="985" as="geometry"/>
                </mxCell>
                <mxCell id="mgZu2CiqmV2a8ZWaujMM-143" value="ToolKeeper" style="html=1;shadow=0;dashed=0;fillColor=#343A40;strokeColor=none;fontSize=16;fontColor=#ffffff;align=left;spacing=15;" vertex="1" parent="pwnMJd_0pTO5JbHJn0oR-1">
                    <mxGeometry x="1391" y="114" width="970" height="60" as="geometry"/>
                </mxCell>
                <mxCell id="mgZu2CiqmV2a8ZWaujMM-144" value="Dashboard" style="fillColor=none;strokeColor=none;fontSize=14;fontColor=#ffffff;align=center;" vertex="1" parent="mgZu2CiqmV2a8ZWaujMM-143">
                    <mxGeometry width="70" height="40" relative="1" as="geometry">
                        <mxPoint x="140" y="10" as="offset"/>
                    </mxGeometry>
                </mxCell>
                <mxCell id="mgZu2CiqmV2a8ZWaujMM-145" value="Check-Out" style="fillColor=none;strokeColor=none;fontSize=14;fontColor=#ffffff;align=center;" vertex="1" parent="mgZu2CiqmV2a8ZWaujMM-143">
                    <mxGeometry width="70" height="40" relative="1" as="geometry">
                        <mxPoint x="240" y="10" as="offset"/>
                    </mxGeometry>
                </mxCell>
                <mxCell id="mgZu2CiqmV2a8ZWaujMM-146" value="Check-In" style="fillColor=none;strokeColor=none;fontSize=14;fontColor=#ffffff;align=center;spacingRight=0;" vertex="1" parent="mgZu2CiqmV2a8ZWaujMM-143">
                    <mxGeometry width="80" height="40" relative="1" as="geometry">
                        <mxPoint x="320" y="10" as="offset"/>
                    </mxGeometry>
                </mxCell>
                <mxCell id="mgZu2CiqmV2a8ZWaujMM-147" value="displayName" style="html=1;shadow=0;dashed=0;shape=mxgraph.bootstrap.rrect;rSize=5;fontSize=14;fontColor=#1CA5B8;strokeColor=#1CA5B8;fillColor=none;align=center;" vertex="1" parent="mgZu2CiqmV2a8ZWaujMM-143">
                    <mxGeometry x="1" width="131" height="40" relative="1" as="geometry">
                        <mxPoint x="-141" y="10" as="offset"/>
                    </mxGeometry>
                </mxCell>
                <mxCell id="mgZu2CiqmV2a8ZWaujMM-148" value="" style="shape=triangle;direction=south;fillColor=#ffffff;strokeColor=none;perimeter=none;" vertex="1" parent="mgZu2CiqmV2a8ZWaujMM-143">
                    <mxGeometry x="1" y="0.5" width="10" height="5" relative="1" as="geometry">
                        <mxPoint x="-30" y="-2" as="offset"/>
                    </mxGeometry>
                </mxCell>
                <mxCell id="mgZu2CiqmV2a8ZWaujMM-149" value="Search By" style="html=1;shadow=0;dashed=0;shape=mxgraph.bootstrap.rrect;rSize=5;strokeColor=none;strokeWidth=1;fillColor=#6C767D;fontColor=#ffffff;whiteSpace=wrap;align=left;verticalAlign=middle;fontStyle=0;fontSize=14;spacingLeft=10;opacity=25;" vertex="1" parent="mgZu2CiqmV2a8ZWaujMM-143">
                    <mxGeometry x="415" y="10" width="140" height="40" as="geometry"/>
                </mxCell>
                <mxCell id="mgZu2CiqmV2a8ZWaujMM-150" value="" style="shape=triangle;direction=south;fillColor=#ffffff;strokeColor=none;perimeter=none;" vertex="1" parent="mgZu2CiqmV2a8ZWaujMM-149">
                    <mxGeometry x="1" y="0.5" width="10" height="5" relative="1" as="geometry">
                        <mxPoint x="-17" y="-2.5" as="offset"/>
                    </mxGeometry>
                </mxCell>
                <mxCell id="mgZu2CiqmV2a8ZWaujMM-151" value="" style="group" vertex="1" connectable="0" parent="pwnMJd_0pTO5JbHJn0oR-1">
                    <mxGeometry x="1456" y="224" width="930" height="763" as="geometry"/>
                </mxCell>
                <mxCell id="mgZu2CiqmV2a8ZWaujMM-152" value="&lt;font color=&quot;#cccccc&quot;&gt;&lt;span style=&quot;font-size: 20px&quot;&gt;&lt;b&gt;Tools&lt;/b&gt;&lt;/span&gt;&lt;br&gt;&lt;br&gt;Filters out archived tools only..&lt;br&gt;Default Sorts by Serial Number&lt;/font&gt;" style="html=1;shadow=0;dashed=0;shape=mxgraph.bootstrap.rrect;rSize=5;strokeColor=#DFDFDF;html=1;whiteSpace=wrap;fillColor=#ffffff;fontColor=#000000;verticalAlign=top;align=left;spacing=20;spacingBottom=0;fontSize=14;spacingTop=160;opacity=10;" vertex="1" parent="mgZu2CiqmV2a8ZWaujMM-151">
                    <mxGeometry x="410" y="313" width="520" height="450" as="geometry"/>
                </mxCell>
                <mxCell id="mgZu2CiqmV2a8ZWaujMM-153" value="Image cap" style="html=1;shadow=0;dashed=0;shape=mxgraph.bootstrap.topButton;rSize=5;perimeter=none;whiteSpace=wrap;fillColor=#868E96;strokeColor=#DFDFDF;fontColor=#DEE2E6;resizeWidth=1;fontSize=18;opacity=25;" vertex="1" parent="mgZu2CiqmV2a8ZWaujMM-152">
                    <mxGeometry width="370" height="160" relative="1" as="geometry"/>
                </mxCell>
                <mxCell id="mgZu2CiqmV2a8ZWaujMM-154" value="" style="verticalLabelPosition=bottom;shadow=0;dashed=0;align=center;html=1;verticalAlign=top;strokeWidth=1;shape=mxgraph.mockup.graphics.pieChart;strokeColor=#008cff;parts=10,20,35;partColors=#e0e0e0,#d0d0d0,#c0c0c0,#b0b0b0,#a0a0a0;strokeWidth=2;fontColor=#000000;opacity=25;" vertex="1" parent="mgZu2CiqmV2a8ZWaujMM-152">
                    <mxGeometry x="115" y="10" width="140" height="120" as="geometry"/>
                </mxCell>
                <mxCell id="mgZu2CiqmV2a8ZWaujMM-155" value="&lt;font color=&quot;#cccccc&quot;&gt;&lt;span style=&quot;font-size: 20px&quot;&gt;&lt;b&gt;Manufacturers&lt;/b&gt;&lt;/span&gt;&lt;br&gt;&lt;br&gt;Groups tools by manufacturer&lt;br&gt;Default sort ascending alphabetic&lt;/font&gt;" style="html=1;shadow=0;dashed=0;shape=mxgraph.bootstrap.rrect;rSize=5;strokeColor=#DFDFDF;html=1;whiteSpace=wrap;fillColor=#ffffff;fontColor=#000000;verticalAlign=top;align=left;spacing=20;spacingBottom=0;fontSize=14;spacingTop=160;opacity=10;" vertex="1" parent="mgZu2CiqmV2a8ZWaujMM-152">
                    <mxGeometry x="-410" y="10" width="930" height="440" as="geometry"/>
                </mxCell>
                <mxCell id="mgZu2CiqmV2a8ZWaujMM-156" value="Image cap" style="html=1;shadow=0;dashed=0;shape=mxgraph.bootstrap.topButton;rSize=5;perimeter=none;whiteSpace=wrap;fillColor=#868E96;strokeColor=#DFDFDF;fontColor=#DEE2E6;resizeWidth=1;fontSize=18;opacity=25;" vertex="1" parent="mgZu2CiqmV2a8ZWaujMM-155">
                    <mxGeometry width="370" height="160" relative="1" as="geometry"/>
                </mxCell>
                <mxCell id="mgZu2CiqmV2a8ZWaujMM-157" value="" style="verticalLabelPosition=bottom;shadow=0;dashed=0;align=center;html=1;verticalAlign=top;strokeWidth=1;shape=mxgraph.mockup.graphics.pieChart;strokeColor=#008cff;parts=10,20,35;partColors=#e0e0e0,#d0d0d0,#c0c0c0,#b0b0b0,#a0a0a0;strokeWidth=2;fontColor=#000000;opacity=25;" vertex="1" parent="mgZu2CiqmV2a8ZWaujMM-155">
                    <mxGeometry x="100" y="20" width="140" height="120" as="geometry"/>
                </mxCell>
                <mxCell id="mgZu2CiqmV2a8ZWaujMM-158" value="&lt;font color=&quot;#cccccc&quot;&gt;&lt;span style=&quot;font-size: 20px&quot;&gt;&lt;b&gt;Service Assignments&lt;br&gt;&lt;/b&gt;&lt;/span&gt;&lt;br&gt;Services assignments could include people, jobsites, gangboxes, and vehicles. It's basically what a tool is checked out to.&lt;/font&gt;" style="html=1;shadow=0;dashed=0;shape=mxgraph.bootstrap.rrect;rSize=5;strokeColor=#DFDFDF;html=1;whiteSpace=wrap;fillColor=#ffffff;fontColor=#000000;verticalAlign=top;align=left;spacing=20;spacingBottom=0;fontSize=14;spacingTop=160;opacity=10;" vertex="1" parent="mgZu2CiqmV2a8ZWaujMM-151">
                    <mxGeometry x="405" width="370" height="290" as="geometry"/>
                </mxCell>
                <mxCell id="mgZu2CiqmV2a8ZWaujMM-159" value="Image cap" style="html=1;shadow=0;dashed=0;shape=mxgraph.bootstrap.topButton;rSize=5;perimeter=none;whiteSpace=wrap;fillColor=#868E96;strokeColor=#DFDFDF;fontColor=#DEE2E6;resizeWidth=1;fontSize=18;opacity=25;" vertex="1" parent="mgZu2CiqmV2a8ZWaujMM-158">
                    <mxGeometry width="370" height="160" relative="1" as="geometry"/>
                </mxCell>
                <mxCell id="mgZu2CiqmV2a8ZWaujMM-160" value="" style="verticalLabelPosition=bottom;shadow=0;dashed=0;align=center;html=1;verticalAlign=top;strokeWidth=1;shape=mxgraph.mockup.graphics.pieChart;strokeColor=#008cff;parts=10,20,35;partColors=#e0e0e0,#d0d0d0,#c0c0c0,#b0b0b0,#a0a0a0;strokeWidth=2;fontColor=#000000;opacity=25;" vertex="1" parent="mgZu2CiqmV2a8ZWaujMM-158">
                    <mxGeometry x="105" y="10" width="140" height="120" as="geometry"/>
                </mxCell>
                <mxCell id="mgZu2CiqmV2a8ZWaujMM-161" value="&lt;font color=&quot;#cccccc&quot;&gt;&lt;span style=&quot;font-size: 20px&quot;&gt;&lt;b&gt;Available Tools &amp;amp; Equipment&lt;br&gt;&lt;/b&gt;&lt;/span&gt;&lt;br&gt;This is a wider card with supporting text below as a natural lead-in to additional content. This content is a little bit longer.&lt;/font&gt;" style="html=1;shadow=0;dashed=0;shape=mxgraph.bootstrap.rrect;rSize=5;strokeColor=#DFDFDF;html=1;whiteSpace=wrap;fillColor=#ffffff;fontColor=#000000;verticalAlign=top;align=left;spacing=20;spacingBottom=0;fontSize=14;spacingTop=160;opacity=10;" vertex="1" parent="mgZu2CiqmV2a8ZWaujMM-151">
                    <mxGeometry y="1" width="907" height="551" as="geometry"/>
                </mxCell>
                <mxCell id="mgZu2CiqmV2a8ZWaujMM-162" value="Image cap" style="html=1;shadow=0;dashed=0;shape=mxgraph.bootstrap.topButton;rSize=5;perimeter=none;whiteSpace=wrap;fillColor=#868E96;strokeColor=#DFDFDF;fontColor=#DEE2E6;resizeWidth=1;fontSize=18;opacity=25;" vertex="1" parent="mgZu2CiqmV2a8ZWaujMM-161">
                    <mxGeometry width="320.4198488870736" height="160" relative="1" as="geometry"/>
                </mxCell>
                <mxCell id="mgZu2CiqmV2a8ZWaujMM-163" value="" style="verticalLabelPosition=bottom;shadow=0;dashed=0;align=center;html=1;verticalAlign=top;strokeWidth=1;shape=mxgraph.mockup.graphics.pieChart;strokeColor=#008cff;parts=10,20,35;partColors=#e0e0e0,#d0d0d0,#c0c0c0,#b0b0b0,#a0a0a0;strokeWidth=2;fontColor=#000000;opacity=25;" vertex="1" parent="mgZu2CiqmV2a8ZWaujMM-161">
                    <mxGeometry x="86.59995915866855" y="20" width="121.23994282213597" height="120" as="geometry"/>
                </mxCell>
                <mxCell id="mgZu2CiqmV2a8ZWaujMM-25" value="Confirm The Equpment To Check-In" style="html=1;shadow=0;dashed=0;shape=mxgraph.bootstrap.rrect;rSize=5;html=1;strokeColor=#C8C8C8;fillColor=#E6E6E6;whiteSpace=wrap;verticalAlign=top;align=left;fontSize=18;spacing=15;spacingTop=-5;fontColor=#000000;fontStyle=1" vertex="1" parent="mgZu2CiqmV2a8ZWaujMM-161">
                    <mxGeometry x="-25" y="181" width="932" height="370" as="geometry"/>
                </mxCell>
                <mxCell id="mgZu2CiqmV2a8ZWaujMM-26" value="" style="shape=line;strokeColor=#dddddd;resizeWidth=1;fontColor=#000000;opacity=25;" vertex="1" parent="mgZu2CiqmV2a8ZWaujMM-25">
                    <mxGeometry width="909.2682926829268" height="10" relative="1" as="geometry">
                        <mxPoint y="50" as="offset"/>
                    </mxGeometry>
                </mxCell>
                <mxCell id="mgZu2CiqmV2a8ZWaujMM-27" value="" style="html=1;shadow=0;dashed=0;shape=mxgraph.bootstrap.x;strokeColor=#868686;strokeWidth=2;fontColor=#000000;opacity=25;" vertex="1" parent="mgZu2CiqmV2a8ZWaujMM-25">
                    <mxGeometry x="1" width="8" height="8" relative="1" as="geometry">
                        <mxPoint x="-24" y="20" as="offset"/>
                    </mxGeometry>
                </mxCell>
                <mxCell id="mgZu2CiqmV2a8ZWaujMM-28" value="&lt;b&gt;Barcode #:&amp;nbsp;&lt;/b&gt;" style="strokeColor=none;fillColor=none;resizeWidth=1;align=left;verticalAlign=top;spacing=10;fontSize=14;whiteSpace=wrap;html=1;fontColor=#000000;opacity=25;" vertex="1" parent="mgZu2CiqmV2a8ZWaujMM-25">
                    <mxGeometry width="119.5693012600229" height="40" relative="1" as="geometry">
                        <mxPoint x="185" y="45" as="offset"/>
                    </mxGeometry>
                </mxCell>
                <mxCell id="mgZu2CiqmV2a8ZWaujMM-29" value="as6d5f4" style="html=1;shadow=0;dashed=0;shape=mxgraph.bootstrap.rrect;rSize=5;strokeColor=#FFFFFF;fillColor=#B3B3B3;align=right;verticalAlign=middle;spacing=10;fontSize=14;whiteSpace=wrap;html=1;fontColor=#000000;opacity=25;strokeWidth=2;" vertex="1" parent="mgZu2CiqmV2a8ZWaujMM-25">
                    <mxGeometry width="85" height="30" relative="1" as="geometry">
                        <mxPoint x="87" y="100" as="offset"/>
                    </mxGeometry>
                </mxCell>
                <mxCell id="mgZu2CiqmV2a8ZWaujMM-30" value="864948" style="html=1;shadow=0;dashed=0;shape=mxgraph.bootstrap.rrect;rSize=5;strokeColor=#999999;fillColor=#B3B3B3;align=left;verticalAlign=middle;spacing=10;fontSize=14;whiteSpace=wrap;html=1;fontColor=#000000;opacity=25;" vertex="1" parent="mgZu2CiqmV2a8ZWaujMM-25">
                    <mxGeometry width="160" height="30" relative="1" as="geometry">
                        <mxPoint x="193" y="100" as="offset"/>
                    </mxGeometry>
                </mxCell>
                <mxCell id="mgZu2CiqmV2a8ZWaujMM-31" value="" style="shape=line;strokeColor=#dddddd;resizeWidth=1;fontColor=#000000;opacity=25;" vertex="1" parent="mgZu2CiqmV2a8ZWaujMM-25">
                    <mxGeometry width="909.2682926829268" height="10" relative="1" as="geometry">
                        <mxPoint y="290" as="offset"/>
                    </mxGeometry>
                </mxCell>
                <mxCell id="mgZu2CiqmV2a8ZWaujMM-32" value="Confirm" style="html=1;shadow=0;dashed=0;shape=mxgraph.bootstrap.rrect;rSize=5;fillColor=#0085FC;strokeColor=none;fontColor=#FFFFFF;fontSize=14;opacity=25;" vertex="1" parent="mgZu2CiqmV2a8ZWaujMM-25">
                    <mxGeometry x="1" y="1" width="110" height="40" relative="1" as="geometry">
                        <mxPoint x="-130" y="-60" as="offset"/>
                    </mxGeometry>
                </mxCell>
                <mxCell id="mgZu2CiqmV2a8ZWaujMM-33" value="Cancel" style="html=1;shadow=0;dashed=0;shape=mxgraph.bootstrap.rrect;rSize=5;fillColor=#6C757D;strokeColor=none;fontColor=#FFFFFF;fontSize=14;opacity=25;" vertex="1" parent="mgZu2CiqmV2a8ZWaujMM-25">
                    <mxGeometry x="1" y="1" width="70" height="40" relative="1" as="geometry">
                        <mxPoint x="-220" y="-60" as="offset"/>
                    </mxGeometry>
                </mxCell>
                <mxCell id="mgZu2CiqmV2a8ZWaujMM-38" value="Joey B" style="html=1;shadow=0;dashed=0;shape=mxgraph.bootstrap.rrect;rSize=5;strokeColor=#999999;fillColor=#B3B3B3;align=left;verticalAlign=middle;spacing=10;fontSize=14;whiteSpace=wrap;html=1;fontColor=#000000;opacity=25;" vertex="1" parent="mgZu2CiqmV2a8ZWaujMM-25">
                    <mxGeometry x="606.3871706758305" y="100" width="248.4372508591065" height="30" as="geometry"/>
                </mxCell>
                <mxCell id="mgZu2CiqmV2a8ZWaujMM-39" value="&lt;b&gt;Status:&lt;/b&gt;" style="strokeColor=none;fillColor=none;resizeWidth=1;align=left;verticalAlign=top;spacing=10;fontSize=14;whiteSpace=wrap;html=1;fontColor=#000000;opacity=25;" vertex="1" parent="mgZu2CiqmV2a8ZWaujMM-25">
                    <mxGeometry x="377.9243986254296" y="45" width="79.0011454753723" height="40" as="geometry"/>
                </mxCell>
                <mxCell id="mgZu2CiqmV2a8ZWaujMM-40" value="Checked-Out" style="html=1;shadow=0;dashed=0;shape=mxgraph.bootstrap.rrect;rSize=5;strokeColor=#999999;fillColor=#B3B3B3;align=left;verticalAlign=middle;spacing=10;fontSize=14;whiteSpace=wrap;html=1;fontColor=#000000;opacity=25;" vertex="1" parent="mgZu2CiqmV2a8ZWaujMM-25">
                    <mxGeometry x="377.92134838815247" y="100" width="207.11111111111114" height="30" as="geometry"/>
                </mxCell>
                <mxCell id="mgZu2CiqmV2a8ZWaujMM-41" value="&lt;b&gt;Service Assignment&lt;/b&gt;" style="strokeColor=none;fillColor=none;resizeWidth=1;align=left;verticalAlign=top;spacing=10;fontSize=14;whiteSpace=wrap;html=1;fontColor=#000000;opacity=25;" vertex="1" parent="mgZu2CiqmV2a8ZWaujMM-25">
                    <mxGeometry x="593.5792243495337" y="45" width="226.96419047619048" height="30" as="geometry"/>
                </mxCell>
                <mxCell id="mgZu2CiqmV2a8ZWaujMM-79" value="MATC-South" style="html=1;shadow=0;dashed=0;shape=mxgraph.bootstrap.rrect;rSize=5;strokeColor=#999999;fillColor=#B3B3B3;align=left;verticalAlign=middle;spacing=10;fontSize=14;whiteSpace=wrap;html=1;fontColor=#000000;opacity=25;" vertex="1" parent="mgZu2CiqmV2a8ZWaujMM-25">
                    <mxGeometry x="606.3871706758305" y="134.99999999999997" width="248.4372508591065" height="30" as="geometry"/>
                </mxCell>
                <mxCell id="mgZu2CiqmV2a8ZWaujMM-81" value="a654sdf" style="html=1;shadow=0;dashed=0;shape=mxgraph.bootstrap.rrect;rSize=5;strokeColor=#FFFFFF;fillColor=#B3B3B3;align=right;verticalAlign=middle;spacing=10;fontSize=14;whiteSpace=wrap;html=1;fontColor=#000000;opacity=25;strokeWidth=2;" vertex="1" parent="mgZu2CiqmV2a8ZWaujMM-25">
                    <mxGeometry x="84" y="135" width="87.88" height="30" as="geometry"/>
                </mxCell>
                <mxCell id="mgZu2CiqmV2a8ZWaujMM-82" value="564642" style="html=1;shadow=0;dashed=0;shape=mxgraph.bootstrap.rrect;rSize=5;strokeColor=#999999;fillColor=#B3B3B3;align=left;verticalAlign=middle;spacing=10;fontSize=14;whiteSpace=wrap;html=1;fontColor=#000000;opacity=25;" vertex="1" parent="mgZu2CiqmV2a8ZWaujMM-25">
                    <mxGeometry x="193.23253150057275" y="134.99999999999997" width="160.13745704467354" height="30" as="geometry"/>
                </mxCell>
                <mxCell id="mgZu2CiqmV2a8ZWaujMM-83" value="Return For Maintenance" style="html=1;shadow=0;dashed=0;shape=mxgraph.bootstrap.rrect;rSize=5;strokeColor=#999999;fillColor=#B3B3B3;align=left;verticalAlign=middle;spacing=10;fontSize=14;whiteSpace=wrap;html=1;fontColor=#000000;opacity=25;" vertex="1" parent="mgZu2CiqmV2a8ZWaujMM-25">
                    <mxGeometry x="606.3871706758305" y="169.99999999999997" width="248.4372508591065" height="30" as="geometry"/>
                </mxCell>
                <mxCell id="mgZu2CiqmV2a8ZWaujMM-85" value="dsfg9dfg89" style="html=1;shadow=0;dashed=0;shape=mxgraph.bootstrap.rrect;rSize=5;strokeColor=#FFFFFF;fillColor=#B3B3B3;align=right;verticalAlign=middle;spacing=10;fontSize=14;whiteSpace=wrap;html=1;fontColor=#000000;opacity=25;strokeWidth=2;" vertex="1" parent="mgZu2CiqmV2a8ZWaujMM-25">
                    <mxGeometry x="84" y="175" width="87.88" height="30" as="geometry"/>
                </mxCell>
                <mxCell id="mgZu2CiqmV2a8ZWaujMM-86" value="364565" style="html=1;shadow=0;dashed=0;shape=mxgraph.bootstrap.rrect;rSize=5;strokeColor=#999999;fillColor=#B3B3B3;align=left;verticalAlign=middle;spacing=10;fontSize=14;whiteSpace=wrap;html=1;fontColor=#000000;opacity=25;" vertex="1" parent="mgZu2CiqmV2a8ZWaujMM-25">
                    <mxGeometry x="193.23253150057275" y="169.99999999999997" width="160.13745704467354" height="30" as="geometry"/>
                </mxCell>
                <mxCell id="mgZu2CiqmV2a8ZWaujMM-87" value="Checked-Out" style="html=1;shadow=0;dashed=0;shape=mxgraph.bootstrap.rrect;rSize=5;strokeColor=#999999;fillColor=#B3B3B3;align=left;verticalAlign=middle;spacing=10;fontSize=14;whiteSpace=wrap;html=1;fontColor=#000000;opacity=25;" vertex="1" parent="mgZu2CiqmV2a8ZWaujMM-25">
                    <mxGeometry x="377.92134838815247" y="134.99999999999997" width="207.11111111111114" height="30" as="geometry"/>
                </mxCell>
                <mxCell id="mgZu2CiqmV2a8ZWaujMM-88" value="Needs Maintenance" style="html=1;shadow=0;dashed=0;shape=mxgraph.bootstrap.rrect;rSize=5;strokeColor=#999999;fillColor=#B3B3B3;align=left;verticalAlign=middle;spacing=10;fontSize=14;whiteSpace=wrap;html=1;fontColor=#000000;opacity=25;" vertex="1" parent="mgZu2CiqmV2a8ZWaujMM-25">
                    <mxGeometry x="377.92134838815247" y="169.99999999999997" width="207.11111111111114" height="30" as="geometry"/>
                </mxCell>
                <mxCell id="mgZu2CiqmV2a8ZWaujMM-174" value="&lt;b&gt;SN:&amp;nbsp;&lt;/b&gt;" style="strokeColor=none;fillColor=none;resizeWidth=1;align=left;verticalAlign=top;spacing=10;fontSize=14;whiteSpace=wrap;html=1;fontColor=#000000;opacity=25;" vertex="1" parent="mgZu2CiqmV2a8ZWaujMM-25">
                    <mxGeometry x="28.002420749279526" y="169.99999999999997" width="48.34582132564841" height="40" as="geometry"/>
                </mxCell>
                <mxCell id="mgZu2CiqmV2a8ZWaujMM-173" value="&lt;b&gt;SN:&amp;nbsp;&lt;/b&gt;" style="strokeColor=none;fillColor=none;resizeWidth=1;align=left;verticalAlign=top;spacing=10;fontSize=14;whiteSpace=wrap;html=1;fontColor=#000000;opacity=25;" vertex="1" parent="mgZu2CiqmV2a8ZWaujMM-151">
                    <mxGeometry x="5.00242074927953" y="321" width="48.34582132564841" height="40" as="geometry"/>
                </mxCell>
                <mxCell id="mgZu2CiqmV2a8ZWaujMM-35" value="&lt;b&gt;SN:&amp;nbsp;&lt;/b&gt;" style="strokeColor=none;fillColor=none;resizeWidth=1;align=left;verticalAlign=top;spacing=10;fontSize=14;whiteSpace=wrap;html=1;fontColor=#000000;opacity=25;" vertex="1" parent="mgZu2CiqmV2a8ZWaujMM-151">
                    <mxGeometry x="5.002420749279533" y="276" width="48.34582132564841" height="40" as="geometry"/>
                </mxCell>
                <mxCell id="mgZu2CiqmV2a8ZWaujMM-172" value="&lt;font color=&quot;#000000&quot;&gt;Confirm Addt'l Details of Check-In Items&lt;/font&gt;" style="text;strokeColor=none;fillColor=none;html=1;fontSize=24;fontStyle=1;verticalAlign=middle;align=center;fontColor=#B3B3B3;opacity=10;" vertex="1" parent="pwnMJd_0pTO5JbHJn0oR-1">
                    <mxGeometry x="1832" y="72" width="100" height="40" as="geometry"/>
                </mxCell>
                <mxCell id="mgZu2CiqmV2a8ZWaujMM-176" value="" style="shape=ext;double=1;rounded=1;whiteSpace=wrap;html=1;fontSize=12;fontColor=#B3B3B3;strokeColor=#999999;strokeWidth=2;fillColor=#B3B3B3;opacity=10;" vertex="1" parent="pwnMJd_0pTO5JbHJn0oR-1">
                    <mxGeometry x="28" y="1123" width="1170" height="985" as="geometry"/>
                </mxCell>
                <mxCell id="mgZu2CiqmV2a8ZWaujMM-177" value="ToolKeeper" style="html=1;shadow=0;dashed=0;fillColor=#343A40;strokeColor=none;fontSize=16;fontColor=#ffffff;align=left;spacing=15;" vertex="1" parent="pwnMJd_0pTO5JbHJn0oR-1">
                    <mxGeometry x="85" y="1185" width="970" height="60" as="geometry"/>
                </mxCell>
                <mxCell id="mgZu2CiqmV2a8ZWaujMM-178" value="Dashboard" style="fillColor=none;strokeColor=none;fontSize=14;fontColor=#ffffff;align=center;" vertex="1" parent="mgZu2CiqmV2a8ZWaujMM-177">
                    <mxGeometry width="70" height="40" relative="1" as="geometry">
                        <mxPoint x="140" y="10" as="offset"/>
                    </mxGeometry>
                </mxCell>
                <mxCell id="mgZu2CiqmV2a8ZWaujMM-179" value="Check-Out" style="fillColor=none;strokeColor=none;fontSize=14;fontColor=#ffffff;align=center;" vertex="1" parent="mgZu2CiqmV2a8ZWaujMM-177">
                    <mxGeometry width="70" height="40" relative="1" as="geometry">
                        <mxPoint x="240" y="10" as="offset"/>
                    </mxGeometry>
                </mxCell>
                <mxCell id="mgZu2CiqmV2a8ZWaujMM-180" value="Check-In" style="fillColor=none;strokeColor=none;fontSize=14;fontColor=#ffffff;align=center;spacingRight=0;" vertex="1" parent="mgZu2CiqmV2a8ZWaujMM-177">
                    <mxGeometry width="80" height="40" relative="1" as="geometry">
                        <mxPoint x="320" y="10" as="offset"/>
                    </mxGeometry>
                </mxCell>
                <mxCell id="mgZu2CiqmV2a8ZWaujMM-181" value="displayName" style="html=1;shadow=0;dashed=0;shape=mxgraph.bootstrap.rrect;rSize=5;fontSize=14;fontColor=#1CA5B8;strokeColor=#1CA5B8;fillColor=none;align=center;" vertex="1" parent="mgZu2CiqmV2a8ZWaujMM-177">
                    <mxGeometry x="1" width="131" height="40" relative="1" as="geometry">
                        <mxPoint x="-141" y="10" as="offset"/>
                    </mxGeometry>
                </mxCell>
                <mxCell id="mgZu2CiqmV2a8ZWaujMM-182" value="" style="shape=triangle;direction=south;fillColor=#ffffff;strokeColor=none;perimeter=none;" vertex="1" parent="mgZu2CiqmV2a8ZWaujMM-177">
                    <mxGeometry x="1" y="0.5" width="10" height="5" relative="1" as="geometry">
                        <mxPoint x="-30" y="-2" as="offset"/>
                    </mxGeometry>
                </mxCell>
                <mxCell id="mgZu2CiqmV2a8ZWaujMM-183" value="Search By" style="html=1;shadow=0;dashed=0;shape=mxgraph.bootstrap.rrect;rSize=5;strokeColor=none;strokeWidth=1;fillColor=#6C767D;fontColor=#ffffff;whiteSpace=wrap;align=left;verticalAlign=middle;fontStyle=0;fontSize=14;spacingLeft=10;opacity=25;" vertex="1" parent="mgZu2CiqmV2a8ZWaujMM-177">
                    <mxGeometry x="415" y="10" width="140" height="40" as="geometry"/>
                </mxCell>
                <mxCell id="mgZu2CiqmV2a8ZWaujMM-184" value="" style="shape=triangle;direction=south;fillColor=#ffffff;strokeColor=none;perimeter=none;" vertex="1" parent="mgZu2CiqmV2a8ZWaujMM-183">
                    <mxGeometry x="1" y="0.5" width="10" height="5" relative="1" as="geometry">
                        <mxPoint x="-17" y="-2.5" as="offset"/>
                    </mxGeometry>
                </mxCell>
                <mxCell id="mgZu2CiqmV2a8ZWaujMM-185" value="" style="group" vertex="1" connectable="0" parent="pwnMJd_0pTO5JbHJn0oR-1">
                    <mxGeometry x="150" y="1295" width="930" height="763" as="geometry"/>
                </mxCell>
                <mxCell id="mgZu2CiqmV2a8ZWaujMM-186" value="&lt;font color=&quot;#cccccc&quot;&gt;&lt;span style=&quot;font-size: 20px&quot;&gt;&lt;b&gt;Tools&lt;/b&gt;&lt;/span&gt;&lt;br&gt;&lt;br&gt;Filters out archived tools only..&lt;br&gt;Default Sorts by Serial Number&lt;/font&gt;" style="html=1;shadow=0;dashed=0;shape=mxgraph.bootstrap.rrect;rSize=5;strokeColor=#DFDFDF;html=1;whiteSpace=wrap;fillColor=#ffffff;fontColor=#000000;verticalAlign=top;align=left;spacing=20;spacingBottom=0;fontSize=14;spacingTop=160;opacity=10;" vertex="1" parent="mgZu2CiqmV2a8ZWaujMM-185">
                    <mxGeometry x="410" y="313" width="520" height="450" as="geometry"/>
                </mxCell>
                <mxCell id="mgZu2CiqmV2a8ZWaujMM-187" value="Image cap" style="html=1;shadow=0;dashed=0;shape=mxgraph.bootstrap.topButton;rSize=5;perimeter=none;whiteSpace=wrap;fillColor=#868E96;strokeColor=#DFDFDF;fontColor=#DEE2E6;resizeWidth=1;fontSize=18;opacity=25;" vertex="1" parent="mgZu2CiqmV2a8ZWaujMM-186">
                    <mxGeometry width="370" height="160" relative="1" as="geometry"/>
                </mxCell>
                <mxCell id="mgZu2CiqmV2a8ZWaujMM-188" value="" style="verticalLabelPosition=bottom;shadow=0;dashed=0;align=center;html=1;verticalAlign=top;strokeWidth=1;shape=mxgraph.mockup.graphics.pieChart;strokeColor=#008cff;parts=10,20,35;partColors=#e0e0e0,#d0d0d0,#c0c0c0,#b0b0b0,#a0a0a0;strokeWidth=2;fontColor=#000000;opacity=25;" vertex="1" parent="mgZu2CiqmV2a8ZWaujMM-186">
                    <mxGeometry x="115" y="10" width="140" height="120" as="geometry"/>
                </mxCell>
                <mxCell id="mgZu2CiqmV2a8ZWaujMM-189" value="&lt;font color=&quot;#cccccc&quot;&gt;&lt;span style=&quot;font-size: 20px&quot;&gt;&lt;b&gt;Manufacturers&lt;/b&gt;&lt;/span&gt;&lt;br&gt;&lt;br&gt;Groups tools by manufacturer&lt;br&gt;Default sort ascending alphabetic&lt;/font&gt;" style="html=1;shadow=0;dashed=0;shape=mxgraph.bootstrap.rrect;rSize=5;strokeColor=#DFDFDF;html=1;whiteSpace=wrap;fillColor=#ffffff;fontColor=#000000;verticalAlign=top;align=left;spacing=20;spacingBottom=0;fontSize=14;spacingTop=160;opacity=10;" vertex="1" parent="mgZu2CiqmV2a8ZWaujMM-186">
                    <mxGeometry x="-410" y="10" width="930" height="440" as="geometry"/>
                </mxCell>
                <mxCell id="mgZu2CiqmV2a8ZWaujMM-190" value="Image cap" style="html=1;shadow=0;dashed=0;shape=mxgraph.bootstrap.topButton;rSize=5;perimeter=none;whiteSpace=wrap;fillColor=#868E96;strokeColor=#DFDFDF;fontColor=#DEE2E6;resizeWidth=1;fontSize=18;opacity=25;" vertex="1" parent="mgZu2CiqmV2a8ZWaujMM-189">
                    <mxGeometry width="370" height="160" relative="1" as="geometry"/>
                </mxCell>
                <mxCell id="mgZu2CiqmV2a8ZWaujMM-191" value="" style="verticalLabelPosition=bottom;shadow=0;dashed=0;align=center;html=1;verticalAlign=top;strokeWidth=1;shape=mxgraph.mockup.graphics.pieChart;strokeColor=#008cff;parts=10,20,35;partColors=#e0e0e0,#d0d0d0,#c0c0c0,#b0b0b0,#a0a0a0;strokeWidth=2;fontColor=#000000;opacity=25;" vertex="1" parent="mgZu2CiqmV2a8ZWaujMM-189">
                    <mxGeometry x="100" y="20" width="140" height="120" as="geometry"/>
                </mxCell>
                <mxCell id="mgZu2CiqmV2a8ZWaujMM-192" value="&lt;font color=&quot;#cccccc&quot;&gt;&lt;span style=&quot;font-size: 20px&quot;&gt;&lt;b&gt;Service Assignments&lt;br&gt;&lt;/b&gt;&lt;/span&gt;&lt;br&gt;Services assignments could include people, jobsites, gangboxes, and vehicles. It's basically what a tool is checked out to.&lt;/font&gt;" style="html=1;shadow=0;dashed=0;shape=mxgraph.bootstrap.rrect;rSize=5;strokeColor=#DFDFDF;html=1;whiteSpace=wrap;fillColor=#ffffff;fontColor=#000000;verticalAlign=top;align=left;spacing=20;spacingBottom=0;fontSize=14;spacingTop=160;opacity=10;" vertex="1" parent="mgZu2CiqmV2a8ZWaujMM-185">
                    <mxGeometry x="405" width="370" height="290" as="geometry"/>
                </mxCell>
                <mxCell id="mgZu2CiqmV2a8ZWaujMM-193" value="Image cap" style="html=1;shadow=0;dashed=0;shape=mxgraph.bootstrap.topButton;rSize=5;perimeter=none;whiteSpace=wrap;fillColor=#868E96;strokeColor=#DFDFDF;fontColor=#DEE2E6;resizeWidth=1;fontSize=18;opacity=25;" vertex="1" parent="mgZu2CiqmV2a8ZWaujMM-192">
                    <mxGeometry width="370" height="160" relative="1" as="geometry"/>
                </mxCell>
                <mxCell id="mgZu2CiqmV2a8ZWaujMM-194" value="" style="verticalLabelPosition=bottom;shadow=0;dashed=0;align=center;html=1;verticalAlign=top;strokeWidth=1;shape=mxgraph.mockup.graphics.pieChart;strokeColor=#008cff;parts=10,20,35;partColors=#e0e0e0,#d0d0d0,#c0c0c0,#b0b0b0,#a0a0a0;strokeWidth=2;fontColor=#000000;opacity=25;" vertex="1" parent="mgZu2CiqmV2a8ZWaujMM-192">
                    <mxGeometry x="105" y="10" width="140" height="120" as="geometry"/>
                </mxCell>
                <mxCell id="mgZu2CiqmV2a8ZWaujMM-195" value="&lt;font color=&quot;#cccccc&quot;&gt;&lt;span style=&quot;font-size: 20px&quot;&gt;&lt;b&gt;Available Tools &amp;amp; Equipment&lt;br&gt;&lt;/b&gt;&lt;/span&gt;&lt;br&gt;This is a wider card with supporting text below as a natural lead-in to additional content. This content is a little bit longer.&lt;/font&gt;" style="html=1;shadow=0;dashed=0;shape=mxgraph.bootstrap.rrect;rSize=5;strokeColor=#DFDFDF;html=1;whiteSpace=wrap;fillColor=#ffffff;fontColor=#000000;verticalAlign=top;align=left;spacing=20;spacingBottom=0;fontSize=14;spacingTop=160;opacity=10;" vertex="1" parent="mgZu2CiqmV2a8ZWaujMM-185">
                    <mxGeometry y="1" width="572" height="414" as="geometry"/>
                </mxCell>
                <mxCell id="mgZu2CiqmV2a8ZWaujMM-196" value="Image cap" style="html=1;shadow=0;dashed=0;shape=mxgraph.bootstrap.topButton;rSize=5;perimeter=none;whiteSpace=wrap;fillColor=#868E96;strokeColor=#DFDFDF;fontColor=#DEE2E6;resizeWidth=1;fontSize=18;opacity=25;" vertex="1" parent="mgZu2CiqmV2a8ZWaujMM-195">
                    <mxGeometry width="320.4198488870736" height="160" relative="1" as="geometry"/>
                </mxCell>
                <mxCell id="mgZu2CiqmV2a8ZWaujMM-197" value="" style="verticalLabelPosition=bottom;shadow=0;dashed=0;align=center;html=1;verticalAlign=top;strokeWidth=1;shape=mxgraph.mockup.graphics.pieChart;strokeColor=#008cff;parts=10,20,35;partColors=#e0e0e0,#d0d0d0,#c0c0c0,#b0b0b0,#a0a0a0;strokeWidth=2;fontColor=#000000;opacity=25;" vertex="1" parent="mgZu2CiqmV2a8ZWaujMM-195">
                    <mxGeometry x="86.59995915866855" y="20" width="121.23994282213597" height="120" as="geometry"/>
                </mxCell>
                <mxCell id="mgZu2CiqmV2a8ZWaujMM-198" value="Enter The Equpment To Check-Out" style="html=1;shadow=0;dashed=0;shape=mxgraph.bootstrap.rrect;rSize=5;html=1;strokeColor=#C8C8C8;fillColor=#E6E6E6;whiteSpace=wrap;verticalAlign=top;align=left;fontSize=18;spacing=15;spacingTop=-5;fontColor=#000000;fontStyle=1" vertex="1" parent="mgZu2CiqmV2a8ZWaujMM-195">
                    <mxGeometry x="232" y="223" width="340" height="191" as="geometry"/>
                </mxCell>
                <mxCell id="mgZu2CiqmV2a8ZWaujMM-199" value="" style="shape=line;strokeColor=#dddddd;resizeWidth=1;fontColor=#000000;opacity=25;" vertex="1" parent="mgZu2CiqmV2a8ZWaujMM-198">
                    <mxGeometry width="331.70731707317066" height="10" relative="1" as="geometry">
                        <mxPoint y="50" as="offset"/>
                    </mxGeometry>
                </mxCell>
                <mxCell id="mgZu2CiqmV2a8ZWaujMM-200" value="" style="html=1;shadow=0;dashed=0;shape=mxgraph.bootstrap.x;strokeColor=#868686;strokeWidth=2;fontColor=#000000;opacity=25;" vertex="1" parent="mgZu2CiqmV2a8ZWaujMM-198">
                    <mxGeometry x="1" width="8" height="8" relative="1" as="geometry">
                        <mxPoint x="-24" y="20" as="offset"/>
                    </mxGeometry>
                </mxCell>
                <mxCell id="mgZu2CiqmV2a8ZWaujMM-201" value="&lt;b style=&quot;font-size: 12px&quot;&gt;Barcode(s):&lt;br&gt;&lt;font color=&quot;#b3b3b3&quot;&gt;one per new line&lt;/font&gt;&lt;br&gt;&lt;/b&gt;" style="strokeColor=none;fillColor=none;resizeWidth=1;align=left;verticalAlign=top;spacing=10;fontSize=14;whiteSpace=wrap;html=1;fontColor=#000000;opacity=25;" vertex="1" parent="mgZu2CiqmV2a8ZWaujMM-198">
                    <mxGeometry width="76" height="110" relative="1" as="geometry">
                        <mxPoint x="11" y="29" as="offset"/>
                    </mxGeometry>
                </mxCell>
                <mxCell id="mgZu2CiqmV2a8ZWaujMM-202" value="1234657&lt;br&gt;5461254&lt;br&gt;6548412" style="html=1;shadow=0;dashed=0;shape=mxgraph.bootstrap.rrect;rSize=5;strokeColor=#FFFFFF;fillColor=#FFFFFF;align=left;verticalAlign=middle;spacing=10;fontSize=14;whiteSpace=wrap;html=1;fontColor=#000000;opacity=25;strokeWidth=2;" vertex="1" parent="mgZu2CiqmV2a8ZWaujMM-198">
                    <mxGeometry width="210" height="65" relative="1" as="geometry">
                        <mxPoint x="94" y="43" as="offset"/>
                    </mxGeometry>
                </mxCell>
                <mxCell id="mgZu2CiqmV2a8ZWaujMM-203" value="" style="shape=line;strokeColor=#dddddd;resizeWidth=1;fontColor=#000000;opacity=25;" vertex="1" parent="mgZu2CiqmV2a8ZWaujMM-198">
                    <mxGeometry width="331.70731707317066" height="10" relative="1" as="geometry">
                        <mxPoint y="290" as="offset"/>
                    </mxGeometry>
                </mxCell>
                <mxCell id="mgZu2CiqmV2a8ZWaujMM-204" value="Confirm" style="html=1;shadow=0;dashed=0;shape=mxgraph.bootstrap.rrect;rSize=5;fillColor=#0085FC;strokeColor=none;fontColor=#FFFFFF;fontSize=14;opacity=25;" vertex="1" parent="mgZu2CiqmV2a8ZWaujMM-198">
                    <mxGeometry x="1" y="1" width="110" height="40" relative="1" as="geometry">
                        <mxPoint x="-127" y="-53" as="offset"/>
                    </mxGeometry>
                </mxCell>
                <mxCell id="mgZu2CiqmV2a8ZWaujMM-205" value="Cancel" style="html=1;shadow=0;dashed=0;shape=mxgraph.bootstrap.rrect;rSize=5;fillColor=#6C757D;strokeColor=none;fontColor=#FFFFFF;fontSize=14;opacity=25;" vertex="1" parent="mgZu2CiqmV2a8ZWaujMM-198">
                    <mxGeometry x="1" y="1" width="70" height="40" relative="1" as="geometry">
                        <mxPoint x="-205" y="-55" as="offset"/>
                    </mxGeometry>
                </mxCell>
                <mxCell id="mgZu2CiqmV2a8ZWaujMM-206" value="&lt;font color=&quot;#000000&quot;&gt;Enter/Scan Serial Numbers To Check In&lt;/font&gt;" style="text;strokeColor=none;fillColor=none;html=1;fontSize=24;fontStyle=1;verticalAlign=middle;align=center;fontColor=#B3B3B3;opacity=10;" vertex="1" parent="pwnMJd_0pTO5JbHJn0oR-1">
                    <mxGeometry x="526" y="1143" width="100" height="40" as="geometry"/>
                </mxCell>
                <mxCell id="mgZu2CiqmV2a8ZWaujMM-207" value="" style="shape=ext;double=1;rounded=1;whiteSpace=wrap;html=1;fontSize=12;fontColor=#B3B3B3;strokeColor=#999999;strokeWidth=2;fillColor=#B3B3B3;opacity=10;" vertex="1" parent="pwnMJd_0pTO5JbHJn0oR-1">
                    <mxGeometry x="1346" y="1126" width="1170" height="985" as="geometry"/>
                </mxCell>
                <mxCell id="mgZu2CiqmV2a8ZWaujMM-208" value="ToolKeeper" style="html=1;shadow=0;dashed=0;fillColor=#343A40;strokeColor=none;fontSize=16;fontColor=#ffffff;align=left;spacing=15;" vertex="1" parent="pwnMJd_0pTO5JbHJn0oR-1">
                    <mxGeometry x="1403" y="1188" width="970" height="60" as="geometry"/>
                </mxCell>
                <mxCell id="mgZu2CiqmV2a8ZWaujMM-209" value="Dashboard" style="fillColor=none;strokeColor=none;fontSize=14;fontColor=#ffffff;align=center;" vertex="1" parent="mgZu2CiqmV2a8ZWaujMM-208">
                    <mxGeometry width="70" height="40" relative="1" as="geometry">
                        <mxPoint x="140" y="10" as="offset"/>
                    </mxGeometry>
                </mxCell>
                <mxCell id="mgZu2CiqmV2a8ZWaujMM-210" value="Check-Out" style="fillColor=none;strokeColor=none;fontSize=14;fontColor=#ffffff;align=center;" vertex="1" parent="mgZu2CiqmV2a8ZWaujMM-208">
                    <mxGeometry width="70" height="40" relative="1" as="geometry">
                        <mxPoint x="240" y="10" as="offset"/>
                    </mxGeometry>
                </mxCell>
                <mxCell id="mgZu2CiqmV2a8ZWaujMM-211" value="Check-In" style="fillColor=none;strokeColor=none;fontSize=14;fontColor=#ffffff;align=center;spacingRight=0;" vertex="1" parent="mgZu2CiqmV2a8ZWaujMM-208">
                    <mxGeometry width="80" height="40" relative="1" as="geometry">
                        <mxPoint x="320" y="10" as="offset"/>
                    </mxGeometry>
                </mxCell>
                <mxCell id="mgZu2CiqmV2a8ZWaujMM-212" value="displayName" style="html=1;shadow=0;dashed=0;shape=mxgraph.bootstrap.rrect;rSize=5;fontSize=14;fontColor=#1CA5B8;strokeColor=#1CA5B8;fillColor=none;align=center;" vertex="1" parent="mgZu2CiqmV2a8ZWaujMM-208">
                    <mxGeometry x="1" width="131" height="40" relative="1" as="geometry">
                        <mxPoint x="-141" y="10" as="offset"/>
                    </mxGeometry>
                </mxCell>
                <mxCell id="mgZu2CiqmV2a8ZWaujMM-213" value="" style="shape=triangle;direction=south;fillColor=#ffffff;strokeColor=none;perimeter=none;" vertex="1" parent="mgZu2CiqmV2a8ZWaujMM-208">
                    <mxGeometry x="1" y="0.5" width="10" height="5" relative="1" as="geometry">
                        <mxPoint x="-30" y="-2" as="offset"/>
                    </mxGeometry>
                </mxCell>
                <mxCell id="mgZu2CiqmV2a8ZWaujMM-214" value="Search By" style="html=1;shadow=0;dashed=0;shape=mxgraph.bootstrap.rrect;rSize=5;strokeColor=none;strokeWidth=1;fillColor=#6C767D;fontColor=#ffffff;whiteSpace=wrap;align=left;verticalAlign=middle;fontStyle=0;fontSize=14;spacingLeft=10;opacity=25;" vertex="1" parent="mgZu2CiqmV2a8ZWaujMM-208">
                    <mxGeometry x="415" y="10" width="140" height="40" as="geometry"/>
                </mxCell>
                <mxCell id="mgZu2CiqmV2a8ZWaujMM-215" value="" style="shape=triangle;direction=south;fillColor=#ffffff;strokeColor=none;perimeter=none;" vertex="1" parent="mgZu2CiqmV2a8ZWaujMM-214">
                    <mxGeometry x="1" y="0.5" width="10" height="5" relative="1" as="geometry">
                        <mxPoint x="-17" y="-2.5" as="offset"/>
                    </mxGeometry>
                </mxCell>
                <mxCell id="mgZu2CiqmV2a8ZWaujMM-216" value="" style="group" vertex="1" connectable="0" parent="pwnMJd_0pTO5JbHJn0oR-1">
                    <mxGeometry x="1468" y="1298" width="930" height="763" as="geometry"/>
                </mxCell>
                <mxCell id="mgZu2CiqmV2a8ZWaujMM-217" value="&lt;font color=&quot;#cccccc&quot;&gt;&lt;span style=&quot;font-size: 20px&quot;&gt;&lt;b&gt;Tools&lt;/b&gt;&lt;/span&gt;&lt;br&gt;&lt;br&gt;Filters out archived tools only..&lt;br&gt;Default Sorts by Serial Number&lt;/font&gt;" style="html=1;shadow=0;dashed=0;shape=mxgraph.bootstrap.rrect;rSize=5;strokeColor=#DFDFDF;html=1;whiteSpace=wrap;fillColor=#ffffff;fontColor=#000000;verticalAlign=top;align=left;spacing=20;spacingBottom=0;fontSize=14;spacingTop=160;opacity=10;" vertex="1" parent="mgZu2CiqmV2a8ZWaujMM-216">
                    <mxGeometry x="410" y="313" width="520" height="450" as="geometry"/>
                </mxCell>
                <mxCell id="mgZu2CiqmV2a8ZWaujMM-218" value="Image cap" style="html=1;shadow=0;dashed=0;shape=mxgraph.bootstrap.topButton;rSize=5;perimeter=none;whiteSpace=wrap;fillColor=#868E96;strokeColor=#DFDFDF;fontColor=#DEE2E6;resizeWidth=1;fontSize=18;opacity=25;" vertex="1" parent="mgZu2CiqmV2a8ZWaujMM-217">
                    <mxGeometry width="370" height="160" relative="1" as="geometry"/>
                </mxCell>
                <mxCell id="mgZu2CiqmV2a8ZWaujMM-219" value="" style="verticalLabelPosition=bottom;shadow=0;dashed=0;align=center;html=1;verticalAlign=top;strokeWidth=1;shape=mxgraph.mockup.graphics.pieChart;strokeColor=#008cff;parts=10,20,35;partColors=#e0e0e0,#d0d0d0,#c0c0c0,#b0b0b0,#a0a0a0;strokeWidth=2;fontColor=#000000;opacity=25;" vertex="1" parent="mgZu2CiqmV2a8ZWaujMM-217">
                    <mxGeometry x="115" y="10" width="140" height="120" as="geometry"/>
                </mxCell>
                <mxCell id="mgZu2CiqmV2a8ZWaujMM-220" value="&lt;font color=&quot;#cccccc&quot;&gt;&lt;span style=&quot;font-size: 20px&quot;&gt;&lt;b&gt;Manufacturers&lt;/b&gt;&lt;/span&gt;&lt;br&gt;&lt;br&gt;Groups tools by manufacturer&lt;br&gt;Default sort ascending alphabetic&lt;/font&gt;" style="html=1;shadow=0;dashed=0;shape=mxgraph.bootstrap.rrect;rSize=5;strokeColor=#DFDFDF;html=1;whiteSpace=wrap;fillColor=#ffffff;fontColor=#000000;verticalAlign=top;align=left;spacing=20;spacingBottom=0;fontSize=14;spacingTop=160;opacity=10;" vertex="1" parent="mgZu2CiqmV2a8ZWaujMM-217">
                    <mxGeometry x="-410" y="10" width="930" height="440" as="geometry"/>
                </mxCell>
                <mxCell id="mgZu2CiqmV2a8ZWaujMM-221" value="Image cap" style="html=1;shadow=0;dashed=0;shape=mxgraph.bootstrap.topButton;rSize=5;perimeter=none;whiteSpace=wrap;fillColor=#868E96;strokeColor=#DFDFDF;fontColor=#DEE2E6;resizeWidth=1;fontSize=18;opacity=25;" vertex="1" parent="mgZu2CiqmV2a8ZWaujMM-220">
                    <mxGeometry width="370" height="160" relative="1" as="geometry"/>
                </mxCell>
                <mxCell id="mgZu2CiqmV2a8ZWaujMM-222" value="" style="verticalLabelPosition=bottom;shadow=0;dashed=0;align=center;html=1;verticalAlign=top;strokeWidth=1;shape=mxgraph.mockup.graphics.pieChart;strokeColor=#008cff;parts=10,20,35;partColors=#e0e0e0,#d0d0d0,#c0c0c0,#b0b0b0,#a0a0a0;strokeWidth=2;fontColor=#000000;opacity=25;" vertex="1" parent="mgZu2CiqmV2a8ZWaujMM-220">
                    <mxGeometry x="100" y="20" width="140" height="120" as="geometry"/>
                </mxCell>
                <mxCell id="mgZu2CiqmV2a8ZWaujMM-223" value="&lt;font color=&quot;#cccccc&quot;&gt;&lt;span style=&quot;font-size: 20px&quot;&gt;&lt;b&gt;Service Assignments&lt;br&gt;&lt;/b&gt;&lt;/span&gt;&lt;br&gt;Services assignments could include people, jobsites, gangboxes, and vehicles. It's basically what a tool is checked out to.&lt;/font&gt;" style="html=1;shadow=0;dashed=0;shape=mxgraph.bootstrap.rrect;rSize=5;strokeColor=#DFDFDF;html=1;whiteSpace=wrap;fillColor=#ffffff;fontColor=#000000;verticalAlign=top;align=left;spacing=20;spacingBottom=0;fontSize=14;spacingTop=160;opacity=10;" vertex="1" parent="mgZu2CiqmV2a8ZWaujMM-216">
                    <mxGeometry x="405" width="370" height="290" as="geometry"/>
                </mxCell>
                <mxCell id="mgZu2CiqmV2a8ZWaujMM-224" value="Image cap" style="html=1;shadow=0;dashed=0;shape=mxgraph.bootstrap.topButton;rSize=5;perimeter=none;whiteSpace=wrap;fillColor=#868E96;strokeColor=#DFDFDF;fontColor=#DEE2E6;resizeWidth=1;fontSize=18;opacity=25;" vertex="1" parent="mgZu2CiqmV2a8ZWaujMM-223">
                    <mxGeometry width="370" height="160" relative="1" as="geometry"/>
                </mxCell>
                <mxCell id="mgZu2CiqmV2a8ZWaujMM-225" value="" style="verticalLabelPosition=bottom;shadow=0;dashed=0;align=center;html=1;verticalAlign=top;strokeWidth=1;shape=mxgraph.mockup.graphics.pieChart;strokeColor=#008cff;parts=10,20,35;partColors=#e0e0e0,#d0d0d0,#c0c0c0,#b0b0b0,#a0a0a0;strokeWidth=2;fontColor=#000000;opacity=25;" vertex="1" parent="mgZu2CiqmV2a8ZWaujMM-223">
                    <mxGeometry x="105" y="10" width="140" height="120" as="geometry"/>
                </mxCell>
                <mxCell id="mgZu2CiqmV2a8ZWaujMM-226" value="&lt;font color=&quot;#cccccc&quot;&gt;&lt;span style=&quot;font-size: 20px&quot;&gt;&lt;b&gt;Available Tools &amp;amp; Equipment&lt;br&gt;&lt;/b&gt;&lt;/span&gt;&lt;br&gt;This is a wider card with supporting text below as a natural lead-in to additional content. This content is a little bit longer.&lt;/font&gt;" style="html=1;shadow=0;dashed=0;shape=mxgraph.bootstrap.rrect;rSize=5;strokeColor=#DFDFDF;html=1;whiteSpace=wrap;fillColor=#ffffff;fontColor=#000000;verticalAlign=top;align=left;spacing=20;spacingBottom=0;fontSize=14;spacingTop=160;opacity=10;" vertex="1" parent="mgZu2CiqmV2a8ZWaujMM-216">
                    <mxGeometry y="1" width="907" height="551" as="geometry"/>
                </mxCell>
                <mxCell id="mgZu2CiqmV2a8ZWaujMM-227" value="Image cap" style="html=1;shadow=0;dashed=0;shape=mxgraph.bootstrap.topButton;rSize=5;perimeter=none;whiteSpace=wrap;fillColor=#868E96;strokeColor=#DFDFDF;fontColor=#DEE2E6;resizeWidth=1;fontSize=18;opacity=25;" vertex="1" parent="mgZu2CiqmV2a8ZWaujMM-226">
                    <mxGeometry width="320.4198488870736" height="160" relative="1" as="geometry"/>
                </mxCell>
                <mxCell id="mgZu2CiqmV2a8ZWaujMM-228" value="" style="verticalLabelPosition=bottom;shadow=0;dashed=0;align=center;html=1;verticalAlign=top;strokeWidth=1;shape=mxgraph.mockup.graphics.pieChart;strokeColor=#008cff;parts=10,20,35;partColors=#e0e0e0,#d0d0d0,#c0c0c0,#b0b0b0,#a0a0a0;strokeWidth=2;fontColor=#000000;opacity=25;" vertex="1" parent="mgZu2CiqmV2a8ZWaujMM-226">
                    <mxGeometry x="86.59995915866855" y="20" width="121.23994282213597" height="120" as="geometry"/>
                </mxCell>
                <mxCell id="mgZu2CiqmV2a8ZWaujMM-229" value="Confirm Details and Submit Check-Out" style="html=1;shadow=0;dashed=0;shape=mxgraph.bootstrap.rrect;rSize=5;html=1;strokeColor=#C8C8C8;fillColor=#E6E6E6;whiteSpace=wrap;verticalAlign=top;align=left;fontSize=18;spacing=15;spacingTop=-5;fontColor=#000000;fontStyle=1" vertex="1" parent="mgZu2CiqmV2a8ZWaujMM-226">
                    <mxGeometry x="-25" y="181" width="932" height="370" as="geometry"/>
                </mxCell>
                <mxCell id="mgZu2CiqmV2a8ZWaujMM-230" value="" style="shape=line;strokeColor=#dddddd;resizeWidth=1;fontColor=#000000;opacity=25;" vertex="1" parent="mgZu2CiqmV2a8ZWaujMM-229">
                    <mxGeometry width="909.2682926829268" height="10" relative="1" as="geometry">
                        <mxPoint y="50" as="offset"/>
                    </mxGeometry>
                </mxCell>
                <mxCell id="mgZu2CiqmV2a8ZWaujMM-231" value="" style="html=1;shadow=0;dashed=0;shape=mxgraph.bootstrap.x;strokeColor=#868686;strokeWidth=2;fontColor=#000000;opacity=25;" vertex="1" parent="mgZu2CiqmV2a8ZWaujMM-229">
                    <mxGeometry x="1" width="8" height="8" relative="1" as="geometry">
                        <mxPoint x="-24" y="20" as="offset"/>
                    </mxGeometry>
                </mxCell>
                <mxCell id="mgZu2CiqmV2a8ZWaujMM-232" value="&lt;b&gt;Barcode #:&amp;nbsp;&lt;/b&gt;" style="strokeColor=none;fillColor=none;resizeWidth=1;align=left;verticalAlign=top;spacing=10;fontSize=14;whiteSpace=wrap;html=1;fontColor=#000000;opacity=25;" vertex="1" parent="mgZu2CiqmV2a8ZWaujMM-229">
                    <mxGeometry width="119.5693012600229" height="40" relative="1" as="geometry">
                        <mxPoint x="185" y="45" as="offset"/>
                    </mxGeometry>
                </mxCell>
                <mxCell id="mgZu2CiqmV2a8ZWaujMM-233" value="as6d5f4" style="html=1;shadow=0;dashed=0;shape=mxgraph.bootstrap.rrect;rSize=5;strokeColor=#999999;fillColor=#FFFFFF;align=left;verticalAlign=middle;spacing=10;fontSize=14;whiteSpace=wrap;html=1;fontColor=#000000;opacity=25;strokeWidth=2;" vertex="1" parent="mgZu2CiqmV2a8ZWaujMM-229">
                    <mxGeometry width="85" height="30" relative="1" as="geometry">
                        <mxPoint x="87" y="100" as="offset"/>
                    </mxGeometry>
                </mxCell>
                <mxCell id="mgZu2CiqmV2a8ZWaujMM-234" value="864948" style="html=1;shadow=0;dashed=0;shape=mxgraph.bootstrap.rrect;rSize=5;strokeColor=#999999;fillColor=#B3B3B3;align=left;verticalAlign=middle;spacing=10;fontSize=14;whiteSpace=wrap;html=1;fontColor=#000000;opacity=25;" vertex="1" parent="mgZu2CiqmV2a8ZWaujMM-229">
                    <mxGeometry width="160" height="30" relative="1" as="geometry">
                        <mxPoint x="193" y="100" as="offset"/>
                    </mxGeometry>
                </mxCell>
                <mxCell id="mgZu2CiqmV2a8ZWaujMM-235" value="" style="shape=line;strokeColor=#dddddd;resizeWidth=1;fontColor=#000000;opacity=25;" vertex="1" parent="mgZu2CiqmV2a8ZWaujMM-229">
                    <mxGeometry width="909.2682926829268" height="10" relative="1" as="geometry">
                        <mxPoint y="290" as="offset"/>
                    </mxGeometry>
                </mxCell>
                <mxCell id="mgZu2CiqmV2a8ZWaujMM-236" value="Submit" style="html=1;shadow=0;dashed=0;shape=mxgraph.bootstrap.rrect;rSize=5;fillColor=#0085FC;strokeColor=none;fontColor=#FFFFFF;fontSize=14;opacity=25;" vertex="1" parent="mgZu2CiqmV2a8ZWaujMM-229">
                    <mxGeometry x="1" y="1" width="110" height="40" relative="1" as="geometry">
                        <mxPoint x="-130" y="-60" as="offset"/>
                    </mxGeometry>
                </mxCell>
                <mxCell id="mgZu2CiqmV2a8ZWaujMM-237" value="Cancel" style="html=1;shadow=0;dashed=0;shape=mxgraph.bootstrap.rrect;rSize=5;fillColor=#6C757D;strokeColor=none;fontColor=#FFFFFF;fontSize=14;opacity=25;" vertex="1" parent="mgZu2CiqmV2a8ZWaujMM-229">
                    <mxGeometry x="1" y="1" width="70" height="40" relative="1" as="geometry">
                        <mxPoint x="-220" y="-60" as="offset"/>
                    </mxGeometry>
                </mxCell>
                <mxCell id="mgZu2CiqmV2a8ZWaujMM-238" value="Truax Airfield - Hanger 15" style="html=1;shadow=0;dashed=0;shape=mxgraph.bootstrap.rrect;rSize=5;strokeColor=#999999;fillColor=#FFFFFF;align=left;verticalAlign=middle;spacing=10;fontSize=14;whiteSpace=wrap;html=1;fontColor=#000000;opacity=25;" vertex="1" parent="mgZu2CiqmV2a8ZWaujMM-229">
                    <mxGeometry x="606.3871706758305" y="100" width="248.4372508591065" height="30" as="geometry"/>
                </mxCell>
                <mxCell id="mgZu2CiqmV2a8ZWaujMM-239" value="&lt;b&gt;Status:&lt;/b&gt;" style="strokeColor=none;fillColor=none;resizeWidth=1;align=left;verticalAlign=top;spacing=10;fontSize=14;whiteSpace=wrap;html=1;fontColor=#000000;opacity=25;" vertex="1" parent="mgZu2CiqmV2a8ZWaujMM-229">
                    <mxGeometry x="377.9243986254296" y="45" width="79.0011454753723" height="40" as="geometry"/>
                </mxCell>
                <mxCell id="mgZu2CiqmV2a8ZWaujMM-240" value="CO - Job Assigned" style="html=1;shadow=0;dashed=0;shape=mxgraph.bootstrap.rrect;rSize=5;strokeColor=#999999;fillColor=#FFFFFF;align=left;verticalAlign=middle;spacing=10;fontSize=14;whiteSpace=wrap;html=1;fontColor=#000000;opacity=25;" vertex="1" parent="mgZu2CiqmV2a8ZWaujMM-229">
                    <mxGeometry x="377.92134838815247" y="100" width="207.11111111111114" height="30" as="geometry"/>
                </mxCell>
                <mxCell id="mgZu2CiqmV2a8ZWaujMM-241" value="&lt;b&gt;Service Assignment&lt;/b&gt;" style="strokeColor=none;fillColor=none;resizeWidth=1;align=left;verticalAlign=top;spacing=10;fontSize=14;whiteSpace=wrap;html=1;fontColor=#000000;opacity=25;" vertex="1" parent="mgZu2CiqmV2a8ZWaujMM-229">
                    <mxGeometry x="593.5792243495337" y="45" width="226.96419047619048" height="30" as="geometry"/>
                </mxCell>
                <mxCell id="mgZu2CiqmV2a8ZWaujMM-242" value="Shop Toolroom" style="html=1;shadow=0;dashed=0;shape=mxgraph.bootstrap.rrect;rSize=5;strokeColor=#999999;fillColor=#FFFFFF;align=left;verticalAlign=middle;spacing=10;fontSize=14;whiteSpace=wrap;html=1;fontColor=#000000;opacity=25;" vertex="1" parent="mgZu2CiqmV2a8ZWaujMM-229">
                    <mxGeometry x="606.3871706758305" y="134.99999999999997" width="248.4372508591065" height="30" as="geometry"/>
                </mxCell>
                <mxCell id="mgZu2CiqmV2a8ZWaujMM-243" value="a654sdf" style="html=1;shadow=0;dashed=0;shape=mxgraph.bootstrap.rrect;rSize=5;strokeColor=#999999;fillColor=#FFFFFF;align=left;verticalAlign=middle;spacing=10;fontSize=14;whiteSpace=wrap;html=1;fontColor=#000000;opacity=25;strokeWidth=2;" vertex="1" parent="mgZu2CiqmV2a8ZWaujMM-229">
                    <mxGeometry x="84" y="135" width="87.88" height="30" as="geometry"/>
                </mxCell>
                <mxCell id="mgZu2CiqmV2a8ZWaujMM-244" value="564642" style="html=1;shadow=0;dashed=0;shape=mxgraph.bootstrap.rrect;rSize=5;strokeColor=#999999;fillColor=#B3B3B3;align=left;verticalAlign=middle;spacing=10;fontSize=14;whiteSpace=wrap;html=1;fontColor=#000000;opacity=25;" vertex="1" parent="mgZu2CiqmV2a8ZWaujMM-229">
                    <mxGeometry x="193.23253150057275" y="134.99999999999997" width="160.13745704467354" height="30" as="geometry"/>
                </mxCell>
                <mxCell id="mgZu2CiqmV2a8ZWaujMM-245" value="Joseph Bouressa" style="html=1;shadow=0;dashed=0;shape=mxgraph.bootstrap.rrect;rSize=5;strokeColor=#999999;fillColor=#FFFFFF;align=left;verticalAlign=middle;spacing=10;fontSize=14;whiteSpace=wrap;html=1;fontColor=#000000;opacity=25;" vertex="1" parent="mgZu2CiqmV2a8ZWaujMM-229">
                    <mxGeometry x="606.3871706758305" y="169.99999999999997" width="248.4372508591065" height="30" as="geometry"/>
                </mxCell>
                <mxCell id="mgZu2CiqmV2a8ZWaujMM-246" value="dsfg9dfg89" style="html=1;shadow=0;dashed=0;shape=mxgraph.bootstrap.rrect;rSize=5;strokeColor=#999999;fillColor=#FFFFFF;align=left;verticalAlign=middle;spacing=10;fontSize=14;whiteSpace=wrap;html=1;fontColor=#000000;opacity=25;strokeWidth=2;" vertex="1" parent="mgZu2CiqmV2a8ZWaujMM-229">
                    <mxGeometry x="84" y="175" width="87.88" height="30" as="geometry"/>
                </mxCell>
                <mxCell id="mgZu2CiqmV2a8ZWaujMM-247" value="364565" style="html=1;shadow=0;dashed=0;shape=mxgraph.bootstrap.rrect;rSize=5;strokeColor=#999999;fillColor=#B3B3B3;align=left;verticalAlign=middle;spacing=10;fontSize=14;whiteSpace=wrap;html=1;fontColor=#000000;opacity=25;" vertex="1" parent="mgZu2CiqmV2a8ZWaujMM-229">
                    <mxGeometry x="193.23253150057275" y="169.99999999999997" width="160.13745704467354" height="30" as="geometry"/>
                </mxCell>
                <mxCell id="mgZu2CiqmV2a8ZWaujMM-248" value="CO - Van Assigned" style="html=1;shadow=0;dashed=0;shape=mxgraph.bootstrap.rrect;rSize=5;strokeColor=#999999;fillColor=#FFFFFF;align=left;verticalAlign=middle;spacing=10;fontSize=14;whiteSpace=wrap;html=1;fontColor=#000000;opacity=25;" vertex="1" parent="mgZu2CiqmV2a8ZWaujMM-229">
                    <mxGeometry x="377.92134838815247" y="134.99999999999997" width="207.11111111111114" height="30" as="geometry"/>
                </mxCell>
                <mxCell id="mgZu2CiqmV2a8ZWaujMM-249" value="CO - Staff Assigned" style="html=1;shadow=0;dashed=0;shape=mxgraph.bootstrap.rrect;rSize=5;strokeColor=#999999;fillColor=#FFFFFF;align=left;verticalAlign=middle;spacing=10;fontSize=14;whiteSpace=wrap;html=1;fontColor=#000000;opacity=25;" vertex="1" parent="mgZu2CiqmV2a8ZWaujMM-229">
                    <mxGeometry x="377.92134838815247" y="169.99999999999997" width="207.11111111111114" height="30" as="geometry"/>
                </mxCell>
                <mxCell id="mgZu2CiqmV2a8ZWaujMM-250" value="&lt;b&gt;SN:&amp;nbsp;&lt;/b&gt;" style="strokeColor=none;fillColor=none;resizeWidth=1;align=left;verticalAlign=top;spacing=10;fontSize=14;whiteSpace=wrap;html=1;fontColor=#000000;opacity=25;" vertex="1" parent="mgZu2CiqmV2a8ZWaujMM-229">
                    <mxGeometry x="28.002420749279526" y="169.99999999999997" width="48.34582132564841" height="40" as="geometry"/>
                </mxCell>
                <mxCell id="mgZu2CiqmV2a8ZWaujMM-251" value="&lt;b&gt;SN:&amp;nbsp;&lt;/b&gt;" style="strokeColor=none;fillColor=none;resizeWidth=1;align=left;verticalAlign=top;spacing=10;fontSize=14;whiteSpace=wrap;html=1;fontColor=#000000;opacity=25;" vertex="1" parent="mgZu2CiqmV2a8ZWaujMM-216">
                    <mxGeometry x="5.00242074927953" y="321" width="48.34582132564841" height="40" as="geometry"/>
                </mxCell>
                <mxCell id="mgZu2CiqmV2a8ZWaujMM-252" value="&lt;b&gt;SN:&amp;nbsp;&lt;/b&gt;" style="strokeColor=none;fillColor=none;resizeWidth=1;align=left;verticalAlign=top;spacing=10;fontSize=14;whiteSpace=wrap;html=1;fontColor=#000000;opacity=25;" vertex="1" parent="mgZu2CiqmV2a8ZWaujMM-216">
                    <mxGeometry x="5.002420749279533" y="276" width="48.34582132564841" height="40" as="geometry"/>
                </mxCell>
                <mxCell id="mgZu2CiqmV2a8ZWaujMM-253" value="&lt;font color=&quot;#000000&quot;&gt;Confirm Addt'l Details of Check-In Items&lt;/font&gt;" style="text;strokeColor=none;fillColor=none;html=1;fontSize=24;fontStyle=1;verticalAlign=middle;align=center;fontColor=#B3B3B3;opacity=10;" vertex="1" parent="pwnMJd_0pTO5JbHJn0oR-1">
                    <mxGeometry x="1844" y="1146" width="100" height="40" as="geometry"/>
                </mxCell>
            </root>
        </mxGraphModel>
    </diagram>
</mxfile>